<?xml version="1.0" encoding="UTF-8" standalone="no"?>
<!-- Created with Inkscape (http://www.inkscape.org/) -->

<svg
   xmlns:dc="http://purl.org/dc/elements/1.1/"
   xmlns:cc="http://creativecommons.org/ns#"
   xmlns:rdf="http://www.w3.org/1999/02/22-rdf-syntax-ns#"
   xmlns:svg="http://www.w3.org/2000/svg"
   xmlns="http://www.w3.org/2000/svg"
   xmlns:sodipodi="http://sodipodi.sourceforge.net/DTD/sodipodi-0.dtd"
   xmlns:inkscape="http://www.inkscape.org/namespaces/inkscape"
   width="185.84824"
   height="145.60654"
   id="svg3630"
   version="1.1"
   inkscape:version="0.48.5 r10040"
   sodipodi:docname="anker.svg">
  <defs
     id="defs3632">
    <clipPath
       clipPathUnits="userSpaceOnUse"
       id="clipPath4434-6">
      <rect
         transform="matrix(0.70710678,0.70710678,-0.70710678,0.70710678,0,0)"
         ry="1.8153608"
         rx="1.2299931"
         y="8491.9297"
         x="1914.3979"
         height="261.76361"
         width="261.76361"
         id="rect4436-4"
         style="opacity:0.57661288;fill:#ff0000;stroke:none" />
    </clipPath>
  </defs>
  <sodipodi:namedview
     id="base"
     pagecolor="#ffffff"
     bordercolor="#666666"
     borderopacity="1.0"
     inkscape:pageopacity="0.0"
     inkscape:pageshadow="2"
     inkscape:zoom="2.5377123"
     inkscape:cx="90.963431"
     inkscape:cy="77.140368"
     inkscape:document-units="px"
     inkscape:current-layer="g3671"
     showgrid="false"
     inkscape:window-width="798"
     inkscape:window-height="884"
     inkscape:window-x="0"
     inkscape:window-y="14"
     inkscape:window-maximized="0"
     fit-margin-top="0"
     fit-margin-left="0"
     fit-margin-right="0"
     fit-margin-bottom="0" />
  <metadata
     id="metadata3635">
    <rdf:RDF>
      <cc:Work
         rdf:about="">
        <dc:format>image/svg+xml</dc:format>
        <dc:type
           rdf:resource="http://purl.org/dc/dcmitype/StillImage" />
      </cc:Work>
    </rdf:RDF>
  </metadata>
  <g
     inkscape:label="Ebene 1"
     inkscape:groupmode="layer"
     id="layer1"
     transform="translate(-142.25829,-377.53125)">
    <g
       id="g3671">
      <path
         id="path4365"
         d="m 235.1875,377.53125 c -0.16428,0 -0.30654,0.0312 -0.46875,0.0312 l -0.0312,0 c -0.16064,0 -0.30947,0.0312 -0.46875,0.0312 -0.15941,0 -0.34196,0.0312 -0.5,0.0312 -0.15779,0 -0.3124,0.0202 -0.46875,0.0625 -0.15616,0.0169 -0.31408,0.0202 -0.46875,0.0625 -0.15466,0.0169 -0.31532,-0.0111 -0.46875,0.0312 -0.15297,0.0167 -0.31707,0.0514 -0.46875,0.0937 -0.1518,0.025 -0.28706,0.0516 -0.4375,0.0937 l -0.0312,0 c -0.15018,0.0211 -0.28876,0.0202 -0.4375,0.0625 -0.14848,0.0379 -0.28999,0.0828 -0.4375,0.125 l -0.0312,0 c -0.2962,0.0716 -0.58466,0.13445 -0.875,0.21875 -0.14426,0.0505 -0.29467,0.0971 -0.4375,0.15625 -0.28742,0.0969 -0.56231,0.17171 -0.84375,0.28125 -0.13991,0.0548 -0.2989,0.1283 -0.4375,0.1875 -0.1386,0.059 -0.26933,0.1283 -0.40625,0.1875 -0.41406,0.18542 -0.81802,0.37882 -1.21875,0.59375 l -0.0312,0 c -1.07082,0.57978 -2.08752,1.28351 -3.0625,2.09375 -0.48701,0.40574 -0.97442,0.84896 -1.4375,1.3125 -2.2043,2.20449 -3.72991,4.66027 -4.625,7.40625 -0.094,0.28826 -0.20075,0.58004 -0.28125,0.875 -0.39878,1.47519 -0.5873,3.03147 -0.625,4.65625 -0.007,0.16175 -0.0312,0.33565 -0.0312,0.5 0,1.51602 0.16843,2.96301 0.5,4.375 0.42621,1.81559 1.11928,3.5451 2.09375,5.1875 0.64973,1.07659 1.37745,2.0899 2.1875,3 0.27064,0.30296 0.55556,0.58849 0.84375,0.875 1.15013,1.13764 2.44109,2.12776 3.875,2.96875 l 0,5.84375 -19,1.21875 0,13.65625 19,1.21875 0,70.21875 c -7.10868,9.67965 28.67462,15.0803 19.03125,-0.0625 l 0,-70.21875 19,-1.1875 0,-13.65625 -19,-1.21875 0,-5.875 c 0.17827,-0.10532 0.3576,-0.20289 0.53125,-0.3125 0.17345,-0.10532 0.36189,-0.23005 0.53125,-0.34375 0.16916,-0.11377 0.33526,-0.22575 0.5,-0.34375 0.16507,-0.11799 0.33988,-0.22153 0.5,-0.34375 0.16026,-0.12216 0.31285,-0.27564 0.46875,-0.40625 0.15623,-0.12638 0.31708,-0.24439 0.46875,-0.375 0.15278,-0.13067 0.32046,-0.27141 0.46875,-0.40625 0.14829,-0.13906 0.26257,-0.29422 0.40625,-0.4375 0.28858,-0.28567 0.5733,-0.57159 0.84375,-0.875 0.81005,-0.90926 1.5379,-1.89215 2.1875,-2.96875 1.73231,-2.92041 2.62487,-6.12848 2.625,-9.59375 -1.3e-4,-1.80337 -0.21788,-3.50198 -0.65625,-5.125 -0.0793,-0.29411 -0.18815,-0.58426 -0.28125,-0.875 -0.89508,-2.74597 -2.45202,-5.2334 -4.65625,-7.4375 -0.46302,-0.46309 -0.91924,-0.908 -1.40625,-1.3125 -0.12222,-0.10116 -0.25155,-0.18435 -0.375,-0.28125 -0.86343,-0.68386 -1.782,-1.27435 -2.71875,-1.78125 -0.13399,-0.0716 -0.27057,-0.15135 -0.40625,-0.21875 -0.26941,-0.13484 -0.53691,-0.28403 -0.8125,-0.40625 -0.41523,-0.18542 -0.82112,-0.34833 -1.25,-0.5 -0.14134,-0.0464 -0.29467,-0.0971 -0.4375,-0.15625 -0.28878,-0.0927 -0.58004,-0.1657 -0.875,-0.25 -0.14575,-0.038 -0.29006,-0.0827 -0.4375,-0.125 -1.48949,-0.36237 -3.07902,-0.53125 -4.71875,-0.53125 l 0,-0.0312 z m 0,10.96875 c 4.35105,0 7.875,3.5239 7.875,7.875 0,4.35105 -3.52395,7.875 -7.875,7.875 -4.3511,0 -7.875,-3.52395 -7.875,-7.875 0,-4.3511 3.5239,-7.875 7.875,-7.875 z"
         style="font-size:773.01678467px;font-style:normal;font-variant:normal;font-weight:normal;font-stretch:normal;line-height:125%;letter-spacing:0px;word-spacing:0px;fill:#fdbc41;fill-opacity:1;stroke:none;display:inline;font-family:FontAwesome;-inkscape-font-specification:FontAwesome"
         inkscape:connector-curvature="0" />
      <path
         transform="matrix(-0.58726519,0,0,0.6501202,-2496.1983,-4371.1004)"
         clip-path="url(#clipPath4434-6)"
         inkscape:connector-curvature="0"
         id="path4369"
         d="m -4651.0852,7203.3402 c -87.2529,0 -158.1643,70.9109 -158.1643,158.1643 0,87.2534 70.9114,158.2996 158.1643,158.2996 87.253,0 158.2996,-71.0462 158.2996,-158.2996 0,-87.2534 -71.0466,-158.1643 -158.2996,-158.1643 z m 0,24.3747 c 74.0669,0 133.9254,59.7228 133.9249,133.7896 0,74.0669 -59.858,133.9249 -133.9249,133.9249 -74.0668,0 -133.7897,-59.858 -133.7897,-133.9249 0,-74.0668 59.7229,-133.7896 133.7897,-133.7896 z"
         style="font-size:medium;font-style:normal;font-variant:normal;font-weight:normal;font-stretch:normal;text-indent:0;text-align:start;text-decoration:none;line-height:normal;letter-spacing:normal;word-spacing:normal;text-transform:none;direction:ltr;block-progression:tb;writing-mode:lr-tb;text-anchor:start;baseline-shift:baseline;color:#000000;fill:#fdbc41;fill-opacity:1;stroke:none;stroke-width:5.63066292;marker:none;visibility:visible;display:inline;overflow:visible;enable-background:accumulate;font-family:Sans;-inkscape-font-specification:Sans" />
      <path
         style="fill:#fdbc41;fill-opacity:1"
         d="m 287.10222,481.2627 -18.68172,0.68607 12.0265,-12.83253 27.98384,-0.98772 0.91011,28.06666 -12.02638,12.83246 -0.52575,-18.68692 c -5.34523,-0.38448 -5.92962,-2.28329 -9.6866,-9.07802 z"
         id="path4371"
         inkscape:connector-curvature="0"
         sodipodi:nodetypes="cccccccc" />
      <path
         sodipodi:nodetypes="cccccccc"
         inkscape:connector-curvature="0"
         id="path4373"
         d="m 183.2608,481.2627 18.68173,0.68607 -12.02651,-12.83253 -27.98384,-0.98772 -0.9101,28.06666 12.02638,12.83246 0.52575,-18.68692 c 5.34522,-0.38448 5.92962,-2.28329 9.68659,-9.07802 z"
         style="fill:#fdbc41;fill-opacity:1" />
      <path
         style="fill:#fdbc41;fill-opacity:1;stroke:none"
         d="m 249.11272,506.90513 c 0.008,0.22487 0.0182,0.44312 0.0182,0.6704 0,8.59368 -6.24779,15.56225 -13.95255,15.56225 -7.70477,0 -13.95255,-6.96857 -13.95255,-15.56225 0,-0.22728 0.01,-0.44553 0.0182,-0.6704 l 27.86883,0 z"
         id="path4377"
         inkscape:connector-curvature="0" />
    </g>
  </g>
</svg>
