<?xml version="1.0" encoding="UTF-8" standalone="no"?>
<!-- Created with Inkscape (http://www.inkscape.org/) -->

<svg
   xmlns:dc="http://purl.org/dc/elements/1.1/"
   xmlns:cc="http://creativecommons.org/ns#"
   xmlns:rdf="http://www.w3.org/1999/02/22-rdf-syntax-ns#"
   xmlns:svg="http://www.w3.org/2000/svg"
   xmlns="http://www.w3.org/2000/svg"
   xmlns:sodipodi="http://sodipodi.sourceforge.net/DTD/sodipodi-0.dtd"
   xmlns:inkscape="http://www.inkscape.org/namespaces/inkscape"
   width="340"
   height="340"
   id="svg3447"
   version="1.1"
   inkscape:version="0.48.5 r10040"
   sodipodi:docname="Neues Dokument 3">
  <defs
     id="defs3449">
    <clipPath
       clipPathUnits="userSpaceOnUse"
       id="clipPath4434">
      <rect
         transform="matrix(0.70710678,0.70710678,-0.70710678,0.70710678,0,0)"
         ry="1.8153608"
         rx="1.2299931"
         y="8491.9297"
         x="1914.3979"
         height="261.76361"
         width="261.76361"
         id="rect4436"
         style="opacity:0.57661288;fill:#ff0000;stroke:none" />
    </clipPath>
    <clipPath
       clipPathUnits="userSpaceOnUse"
       id="clipPath4590">
      <path
         sodipodi:nodetypes="cccccccc"
         inkscape:connector-curvature="0"
         id="path4592"
         d="m -4623.8797,7360.2562 -32.3968,-15.9515 21.309,-23.1111 z m -53.9986,-39.0626 21.3091,23.1067 -32.3947,15.9559 z"
         style="fill:#ff0000;fill-opacity:1;fill-rule:evenodd;stroke:none" />
    </clipPath>
    <clipPath
       clipPathUnits="userSpaceOnUse"
       id="clipPath4594">
      <path
         sodipodi:nodetypes="cccccccc"
         inkscape:connector-curvature="0"
         id="path4596"
         d="m -4611.873,7366.1514 -44.3484,-21.8363 29.1702,-31.6371 z m -73.9194,-53.4734 29.1702,31.6312 -44.3455,21.8422 z"
         style="fill:#ff0000;fill-opacity:1;fill-rule:evenodd;stroke:none" />
    </clipPath>
    <clipPath
       clipPathUnits="userSpaceOnUse"
       id="clipPath4598">
      <path
         sodipodi:nodetypes="cccccccc"
         inkscape:connector-curvature="0"
         id="path4600"
         d="m -4588.8535,7377.4531 -67.2619,-33.1184 44.2416,-47.9831 z m -112.1113,-81.1015 44.2416,47.9741 -67.2575,33.1274 z"
         style="fill:#ff0000;fill-opacity:1;fill-rule:evenodd;stroke:none" />
    </clipPath>
    <clipPath
       clipPathUnits="userSpaceOnUse"
       id="clipPath4434-6">
      <rect
         transform="matrix(0.70710678,0.70710678,-0.70710678,0.70710678,0,0)"
         ry="1.8153608"
         rx="1.2299931"
         y="8491.9297"
         x="1914.3979"
         height="261.76361"
         width="261.76361"
         id="rect4436-4"
         style="opacity:0.57661288;fill:#ff0000;stroke:none" />
    </clipPath>
    <clipPath
       clipPathUnits="userSpaceOnUse"
       id="clipPath4590-9">
      <path
         sodipodi:nodetypes="cccccccc"
         inkscape:connector-curvature="0"
         id="path4592-5"
         d="m -4623.8797,7360.2562 -32.3968,-15.9515 21.309,-23.1111 z m -53.9986,-39.0626 21.3091,23.1067 -32.3947,15.9559 z"
         style="fill:#ff0000;fill-opacity:1;fill-rule:evenodd;stroke:none" />
    </clipPath>
    <clipPath
       clipPathUnits="userSpaceOnUse"
       id="clipPath4594-4">
      <path
         sodipodi:nodetypes="cccccccc"
         inkscape:connector-curvature="0"
         id="path4596-2"
         d="m -4611.873,7366.1514 -44.3484,-21.8363 29.1702,-31.6371 z m -73.9194,-53.4734 29.1702,31.6312 -44.3455,21.8422 z"
         style="fill:#ff0000;fill-opacity:1;fill-rule:evenodd;stroke:none" />
    </clipPath>
    <clipPath
       clipPathUnits="userSpaceOnUse"
       id="clipPath4598-4">
      <path
         sodipodi:nodetypes="cccccccc"
         inkscape:connector-curvature="0"
         id="path4600-8"
         d="m -4588.8535,7377.4531 -67.2619,-33.1184 44.2416,-47.9831 z m -112.1113,-81.1015 44.2416,47.9741 -67.2575,33.1274 z"
         style="fill:#ff0000;fill-opacity:1;fill-rule:evenodd;stroke:none" />
    </clipPath>
  </defs>
  <sodipodi:namedview
     id="base"
     pagecolor="#333333"
     bordercolor="#666666"
     borderopacity="1.0"
     inkscape:pageopacity="1"
     inkscape:pageshadow="2"
     inkscape:zoom="1.8529412"
     inkscape:cx="170"
     inkscape:cy="170"
     inkscape:document-units="px"
     inkscape:current-layer="layer1"
     showgrid="false"
     fit-margin-top="0"
     fit-margin-left="0"
     fit-margin-right="0"
     fit-margin-bottom="0"
     inkscape:window-width="798"
     inkscape:window-height="884"
     inkscape:window-x="0"
     inkscape:window-y="14"
     inkscape:window-maximized="0" />
  <metadata
     id="metadata3452">
    <rdf:RDF>
      <cc:Work
         rdf:about="">
        <dc:format>image/svg+xml</dc:format>
        <dc:type
           rdf:resource="http://purl.org/dc/dcmitype/StillImage" />
        <dc:title></dc:title>
      </cc:Work>
    </rdf:RDF>
  </metadata>
  <g
     inkscape:label="Ebene 1"
     inkscape:groupmode="layer"
     id="layer1"
     transform="translate(-61.118914,-25.590534)">
    <g
       id="g3580"
       transform="translate(2.688147,-2.688134)">
      <path
         style="fill:#333333;fill-opacity:1;stroke:#e5287a;stroke-width:20.52684021;stroke-linecap:square;stroke-linejoin:round;stroke-miterlimit:4;stroke-opacity:1;stroke-dashoffset:0;display:inline"
         d="m 71.382334,198.27868 c 0,86.73545 70.312976,157.04842 157.048426,157.04842 86.73546,0 157.04844,-70.31297 157.04844,-157.04842 0,-86.73546 -70.31298,-157.048444 -157.04844,-157.048444 -86.73545,0 -157.048426,70.312984 -157.048426,157.048444 z"
         id="path4355"
         inkscape:connector-curvature="0" />
      <path
         style="fill:none;stroke:#ededed;stroke-width:9.63967514;stroke-linecap:square;stroke-linejoin:round;stroke-miterlimit:4;stroke-opacity:1;stroke-dashoffset:0;display:inline"
         d="m 96.168864,198.27871 c 0,73.04626 59.215686,132.26196 132.261956,132.26196 73.04627,0 132.26196,-59.2157 132.26196,-132.26196 0,-73.04627 -59.21569,-132.261974 -132.26196,-132.261974 -73.04627,0 -132.261956,59.215704 -132.261956,132.261974 z"
         id="path4357"
         inkscape:connector-curvature="0" />
      <path
         transform="matrix(-2.2986419,0,0,2.2986419,-10475.042,-16709.889)"
         style="fill:none;stroke:#fdbc41;stroke-width:2.82827973;stroke-miterlimit:4;stroke-opacity:1"
         clip-path="url(#clipPath4598-4)"
         d="m -4639.6343,7344.2769 c 0,9.2739 -7.518,16.7919 -16.792,16.7919 -9.2739,0 -16.7919,-7.518 -16.7919,-16.7919 0,-9.274 7.518,-16.792 16.7919,-16.792 9.274,0 16.792,7.518 16.792,16.792 z"
         id="path4359"
         inkscape:connector-curvature="0" />
      <path
         transform="matrix(-3.4862789,0,0,3.4862789,-16005.186,-25432.225)"
         style="fill:none;stroke:#fdbc41;stroke-width:1.86479688;stroke-miterlimit:4;stroke-opacity:1"
         clip-path="url(#clipPath4594-4)"
         d="m -4639.6343,7344.2769 c 0,9.2739 -7.518,16.7919 -16.792,16.7919 -9.2739,0 -16.7919,-7.518 -16.7919,-16.7919 0,-9.274 7.518,-16.792 16.7919,-16.792 9.274,0 16.792,7.518 16.792,16.792 z"
         id="path4361"
         inkscape:connector-curvature="0" />
      <path
         transform="matrix(-4.7724215,0,0,4.7724215,-21994.014,-34878.011)"
         style="fill:none;stroke:#fdbc41;stroke-width:1.36224389;stroke-miterlimit:4;stroke-opacity:1"
         clip-path="url(#clipPath4590-9)"
         d="m -4639.6343,7344.2769 c 0,9.2739 -7.518,16.7919 -16.792,16.7919 -9.2739,0 -16.7919,-7.518 -16.7919,-16.7919 0,-9.274 7.518,-16.792 16.7919,-16.792 9.274,0 16.792,7.518 16.792,16.792 z"
         id="path4363"
         inkscape:connector-curvature="0" />
      <path
         id="path4365"
         d="m 228.43276,153.16229 c 1.63973,0 3.20633,0.18119 4.69582,0.54356 0.14744,0.0423 0.29535,0.0758 0.4411,0.11377 0.29496,0.0843 0.58791,0.16851 0.87669,0.26122 0.14283,0.0592 0.28904,0.0969 0.43038,0.14329 0.42888,0.15167 0.85419,0.32018 1.26942,0.5056 0.27559,0.12222 0.54819,0.25705 0.8176,0.39189 0.13568,0.0674 0.27474,0.13899 0.40873,0.21064 0.93675,0.5069 1.83678,1.10735 2.70021,1.79121 0.12345,0.0969 0.24899,0.1938 0.37121,0.29496 0.48701,0.4045 0.96244,0.84437 1.42546,1.30746 2.20423,2.2041 3.7523,4.6821 4.64738,7.42807 0.0931,0.29074 0.18412,0.57686 0.26337,0.87097 0.43837,1.62302 0.65616,3.33882 0.65629,5.14219 -1.3e-4,3.46527 -0.8657,6.65957 -2.59801,9.57998 -0.6496,1.0766 -1.37923,2.07056 -2.18928,2.97982 -0.27045,0.30341 -0.55059,0.59707 -0.83917,0.88274 -0.14368,0.14328 -0.28736,0.28234 -0.43565,0.4214 -0.14829,0.13484 -0.29366,0.26961 -0.44644,0.40028 l -0.006,0 c -0.15167,0.13061 -0.30633,0.26545 -0.46256,0.39183 l -0.007,0 c -0.1559,0.13061 -0.31303,0.26128 -0.47329,0.38344 l -0.007,0 c -0.16012,0.12222 -0.31901,0.24016 -0.48408,0.35815 l -0.007,0 c -0.16474,0.118 -0.33117,0.236 -0.50033,0.34977 l -0.006,0 c -0.16936,0.1137 -0.33748,0.2317 -0.51093,0.33702 l -0.007,0 c -0.17365,0.10961 -0.34892,0.21915 -0.52719,0.32447 l 0,5.86974 19.0038,1.20201 0,13.67144 -19.0038,1.1961 0,70.21408 c 9.64337,15.1428 -26.14107,9.72645 -19.03239,0.0468 l 0,-70.2213 -19.0038,-1.20207 0,-13.67138 19.0038,-1.19609 0,-5.86253 c -1.43391,-0.84099 -2.72271,-1.83165 -3.87284,-2.96929 -0.28819,-0.28651 -0.56853,-0.57854 -0.83917,-0.8815 -0.81005,-0.9101 -1.53955,-1.90323 -2.18928,-2.97982 -0.97447,-1.6424 -1.67699,-3.36958 -2.1032,-5.18517 -0.33157,-1.41199 -0.49494,-2.87873 -0.49494,-4.39475 0,-0.16435 0,-0.3287 0.007,-0.49045 0.0377,-1.62478 0.25199,-3.17746 0.65077,-4.65265 0.0805,-0.29496 0.16936,-0.5827 0.26336,-0.87096 0.89509,-2.74598 2.44309,-5.22398 4.64739,-7.42847 0.46308,-0.46354 0.93838,-0.90133 1.42539,-1.30707 l 0.006,0 c 0.97498,-0.81024 1.99515,-1.50717 3.06597,-2.08695 l 0.007,0 c 0.40073,-0.21493 0.80699,-0.41718 1.22105,-0.6026 l 0.007,0 c 0.13692,-0.0592 0.27559,-0.11793 0.41419,-0.17696 0,0 0,0 0.007,0 0.1386,-0.0592 0.27428,-0.11793 0.41419,-0.17274 0,0 0,0 0.006,0 0.28144,-0.10954 0.56788,-0.20647 0.8553,-0.30334 0,0 0,0 0.006,0 0.14283,-0.0592 0.28612,-0.0843 0.43038,-0.13484 0,0 0,0 0.006,0 0.29034,-0.0843 0.58049,-0.16857 0.87669,-0.24022 0,0 0,0 0.007,0 0.14751,-0.0422 0.29795,-0.0674 0.44643,-0.10531 0,0 0,0 0.007,0 0.14874,-0.0423 0.29619,-0.0674 0.44637,-0.0885 0,0 0,0 0.007,0 0.15044,-0.0422 0.30003,-0.0592 0.45183,-0.0842 0,0 0,0 0.006,0 0.15168,-0.0423 0.3042,-0.0592 0.45717,-0.0759 0,0 0,0 0.007,0 0.15343,-0.0423 0.30803,-0.0423 0.46269,-0.0592 0,0 0,0 0.006,0 0.15467,-0.0423 0.3118,-0.0423 0.46796,-0.0592 0,0 0,0 0.006,0 0.15635,-0.0423 0.31017,-0.0423 0.46796,-0.0423 0,0 0,0 0.006,0 0.15804,0 0.3194,-0.0423 0.47881,-0.0423 0,0 0,0 0.006,0 0.15928,0 0.31811,-0.0423 0.47875,-0.0423 0,0 0,0 0.006,0 0.16221,0 0.32526,-0.006 0.48954,-0.006 z"
         style="font-size:773.01678467px;font-style:normal;font-variant:normal;font-weight:normal;font-stretch:normal;line-height:125%;letter-spacing:0px;word-spacing:0px;fill:#fdbc41;fill-opacity:1;stroke:none;display:inline;font-family:FontAwesome;-inkscape-font-specification:FontAwesome"
         inkscape:connector-curvature="0"
         sodipodi:nodetypes="ccccccccccccccccccccccccccccccccccccccccccccccccccccccccccccccccccccccccccccccccccccccc" />
      <path
         style="font-size:medium;font-style:normal;font-variant:normal;font-weight:normal;font-stretch:normal;text-indent:0;text-align:start;text-decoration:none;line-height:normal;letter-spacing:normal;word-spacing:normal;text-transform:none;direction:ltr;block-progression:tb;writing-mode:lr-tb;text-anchor:start;baseline-shift:baseline;color:#000000;fill:#fdbc41;fill-opacity:1;stroke:none;stroke-width:5.63066292;marker:none;visibility:visible;display:inline;overflow:visible;enable-background:accumulate;font-family:Sans;-inkscape-font-specification:Sans"
         d="m -4651.0852,7203.3402 c -87.2529,0 -158.1643,70.9109 -158.1643,158.1643 0,87.2534 70.9114,158.2996 158.1643,158.2996 87.253,0 158.2996,-71.0462 158.2996,-158.2996 0,-87.2534 -71.0466,-158.1643 -158.2996,-158.1643 z m 0,24.3747 c 74.0669,0 133.9254,59.7228 133.9249,133.7896 0,74.0669 -59.858,133.9249 -133.9249,133.9249 -74.0668,0 -133.7897,-59.858 -133.7897,-133.9249 0,-74.0668 59.7229,-133.7896 133.7897,-133.7896 z"
         id="path4369"
         inkscape:connector-curvature="0"
         clip-path="url(#clipPath4434-6)"
         transform="matrix(-0.58726519,0,0,0.6501202,-2502.9657,-4595.5031)" />
      <path
         sodipodi:nodetypes="cccccccc"
         inkscape:connector-curvature="0"
         id="path4371"
         d="m 280.33477,256.85991 -18.68172,0.68607 12.0265,-12.83253 27.98384,-0.98772 0.91011,28.06666 -12.02638,12.83246 -0.52575,-18.68692 c -5.34523,-0.38448 -5.92962,-2.28329 -9.6866,-9.07802 z"
         style="fill:#fdbc41;fill-opacity:1" />
      <path
         style="fill:#fdbc41;fill-opacity:1"
         d="m 176.49334,256.85991 18.68173,0.68607 -12.02651,-12.83253 -27.98384,-0.98772 -0.9101,28.06666 12.02638,12.83246 0.52575,-18.68692 c 5.34522,-0.38448 5.92962,-2.28329 9.68659,-9.07802 z"
         id="path4373"
         inkscape:connector-curvature="0"
         sodipodi:nodetypes="cccccccc" />
      <path
         style="fill:#333333;fill-opacity:1;fill-rule:evenodd;stroke:none"
         d="m 220.53742,171.97268 c 0,4.35105 3.52723,7.87828 7.87833,7.87828 4.35105,0 7.87828,-3.52723 7.87828,-7.87828 0,-4.3511 -3.52723,-7.87833 -7.87828,-7.87833 -4.3511,0 -7.87833,3.52723 -7.87833,7.87833 z"
         id="path4375"
         inkscape:connector-curvature="0" />
      <path
         inkscape:connector-curvature="0"
         id="path4377"
         d="m 242.34527,282.50234 c 0.008,0.22487 0.0182,0.44312 0.0182,0.6704 0,8.59368 -6.24779,15.56225 -13.95256,15.56225 -7.70477,0 -13.95255,-6.96857 -13.95255,-15.56225 0,-0.22728 0.01,-0.44553 0.0182,-0.6704 l 27.86884,0 z"
         style="fill:#fdbc41;fill-opacity:1;stroke:none" />
    </g>
  </g>
</svg>
