<?xml version="1.0" encoding="UTF-8" standalone="no"?>
<!-- Created with Inkscape (http://www.inkscape.org/) -->

<svg
   xmlns:dc="http://purl.org/dc/elements/1.1/"
   xmlns:cc="http://creativecommons.org/ns#"
   xmlns:rdf="http://www.w3.org/1999/02/22-rdf-syntax-ns#"
   xmlns:svg="http://www.w3.org/2000/svg"
   xmlns="http://www.w3.org/2000/svg"
   xmlns:sodipodi="http://sodipodi.sourceforge.net/DTD/sodipodi-0.dtd"
   xmlns:inkscape="http://www.inkscape.org/namespaces/inkscape"
   width="492.46606"
   height="492.46606"
   id="svg3125"
   version="1.1"
   inkscape:version="0.48.5 r10040"
   sodipodi:docname="New document 3">
  <defs
     id="defs3127">
    <clipPath
       clipPathUnits="userSpaceOnUse"
       id="clipPath4598">
      <path
         sodipodi:nodetypes="cccccccc"
         inkscape:connector-curvature="0"
         id="path4600"
         d="m -4588.8535,7377.4531 -67.2619,-33.1184 44.2416,-47.9831 z m -112.1113,-81.1015 44.2416,47.9741 -67.2575,33.1274 z"
         style="fill:#ff0000;fill-opacity:1;fill-rule:evenodd;stroke:none" />
    </clipPath>
    <clipPath
       clipPathUnits="userSpaceOnUse"
       id="clipPath4594">
      <path
         sodipodi:nodetypes="cccccccc"
         inkscape:connector-curvature="0"
         id="path4596"
         d="m -4611.873,7366.1514 -44.3484,-21.8363 29.1702,-31.6371 z m -73.9194,-53.4734 29.1702,31.6312 -44.3455,21.8422 z"
         style="fill:#ff0000;fill-opacity:1;fill-rule:evenodd;stroke:none" />
    </clipPath>
    <clipPath
       clipPathUnits="userSpaceOnUse"
       id="clipPath4590">
      <path
         sodipodi:nodetypes="cccccccc"
         inkscape:connector-curvature="0"
         id="path4592"
         d="m -4623.8797,7360.2562 -32.3968,-15.9515 21.309,-23.1111 z m -53.9986,-39.0626 21.3091,23.1067 -32.3947,15.9559 z"
         style="fill:#ff0000;fill-opacity:1;fill-rule:evenodd;stroke:none" />
    </clipPath>
    <clipPath
       clipPathUnits="userSpaceOnUse"
       id="clipPath4434">
      <rect
         transform="matrix(0.70710678,0.70710678,-0.70710678,0.70710678,0,0)"
         ry="1.8153608"
         rx="1.2299931"
         y="8491.9297"
         x="1914.3979"
         height="261.76361"
         width="261.76361"
         id="rect4436"
         style="opacity:0.57661288;fill:#ff0000;stroke:none" />
    </clipPath>
  </defs>
  <sodipodi:namedview
     id="base"
     pagecolor="#333333"
     bordercolor="#666666"
     borderopacity="1.0"
     inkscape:pageopacity="1"
     inkscape:pageshadow="2"
     inkscape:zoom="0.35"
     inkscape:cx="341.23336"
     inkscape:cy="-270.91741"
     inkscape:document-units="px"
     inkscape:current-layer="layer1"
     showgrid="false"
     fit-margin-top="0"
     fit-margin-left="0"
     fit-margin-right="0"
     fit-margin-bottom="0"
     inkscape:window-width="958"
     inkscape:window-height="1063"
     inkscape:window-x="0"
     inkscape:window-y="15"
     inkscape:window-maximized="0" />
  <metadata
     id="metadata3130">
    <rdf:RDF>
      <cc:Work
         rdf:about="">
        <dc:format>image/svg+xml</dc:format>
        <dc:type
           rdf:resource="http://purl.org/dc/dcmitype/StillImage" />
        <dc:title></dc:title>
      </cc:Work>
    </rdf:RDF>
  </metadata>
  <g
     inkscape:label="Layer 1"
     inkscape:groupmode="layer"
     id="layer1"
     transform="translate(-33.766638,231.02128)">
    <g
       id="g4756"
       transform="matrix(0.6501202,0,0,0.6501202,3051.1167,-5567.2282)">
      <path
         transform="matrix(-0.03715004,-1.3943823,-1.3943823,0.03715004,-3321.1875,8328.4882)"
         style="fill:none;stroke:none;display:inline"
         d="m 85.714294,679.50507 c 0,139.64914 -113.208,252.85714 -252.857144,252.85714 C -306.792,932.36221 -420,819.15421 -420,679.50507 c 0,-139.64915 113.208,-252.85715 252.85715,-252.85715 139.649144,0 252.857144,113.208 252.857144,252.85715 z"
         id="path3369"
         inkscape:connector-curvature="0" />
      <path
         transform="matrix(0,1.0867917,-1.0867917,0,-3523.9877,8768.4423)"
         style="fill:none;stroke:none;display:inline"
         d="m 85.714294,679.50507 c 0,139.64914 -113.208,252.85714 -252.857144,252.85714 C -306.792,932.36221 -420,819.15421 -420,679.50507 c 0,-139.64915 113.208,-252.85715 252.85715,-252.85715 139.649144,0 252.857144,113.208 252.857144,252.85715 z"
         id="path3305"
         inkscape:connector-curvature="0" />
      <path
         transform="matrix(-0.95535486,0,0,0.95535486,-4422.1489,7937.6244)"
         style="fill:#333333;fill-opacity:1;stroke:#e5287a;stroke-width:33.04941177;stroke-linecap:square;stroke-linejoin:round;stroke-miterlimit:4;stroke-opacity:1;stroke-dashoffset:0;display:inline"
         d="m 85.714294,679.50507 c 0,139.64914 -113.208,252.85714 -252.857144,252.85714 C -306.792,932.36221 -420,819.15421 -420,679.50507 c 0,-139.64915 113.208,-252.85715 252.85715,-252.85715 139.649144,0 252.857144,113.208 252.857144,252.85715 z"
         id="path4758"
         inkscape:connector-curvature="0" />
      <path
         transform="matrix(-0.80457415,0,0,0.80457415,-4396.9469,8040.0807)"
         style="fill:none;stroke:#ededed;stroke-width:18.42903709;stroke-linecap:square;stroke-linejoin:round;stroke-miterlimit:4;stroke-opacity:1;stroke-dashoffset:0;display:inline"
         d="m 85.714294,679.50507 c 0,139.64914 -113.208,252.85714 -252.857144,252.85714 C -306.792,932.36221 -420,819.15421 -420,679.50507 c 0,-139.64915 113.208,-252.85715 252.85715,-252.85715 139.649144,0 252.857144,113.208 252.857144,252.85715 z"
         id="path4760"
         inkscape:connector-curvature="0" />
      <path
         transform="matrix(-3.5357183,0,0,3.5357183,-20726.305,-17420.965)"
         style="fill:none;stroke:#fdbc41;stroke-width:2.82827973;stroke-miterlimit:4;stroke-opacity:1"
         clip-path="url(#clipPath4598)"
         d="m -4639.6343,7344.2769 c 0,9.2739 -7.518,16.7919 -16.792,16.7919 -9.2739,0 -16.7919,-7.518 -16.7919,-16.7919 0,-9.274 7.518,-16.792 16.7919,-16.792 9.274,0 16.792,7.518 16.792,16.792 z"
         id="path4762"
         inkscape:connector-curvature="0" />
      <path
         transform="matrix(-5.3625144,0,0,5.3625144,-29232.647,-30837.462)"
         style="fill:none;stroke:#fdbc41;stroke-width:1.86479688;stroke-miterlimit:4;stroke-opacity:1"
         clip-path="url(#clipPath4594)"
         d="m -4639.6343,7344.2769 c 0,9.2739 -7.518,16.7919 -16.792,16.7919 -9.2739,0 -16.7919,-7.518 -16.7919,-16.7919 0,-9.274 7.518,-16.792 16.7919,-16.792 9.274,0 16.792,7.518 16.792,16.792 z"
         id="path4764"
         inkscape:connector-curvature="0" />
      <path
         transform="matrix(-7.3408294,0,0,7.3408294,-38444.524,-45366.754)"
         style="fill:none;stroke:#fdbc41;stroke-width:1.36224389;stroke-miterlimit:4;stroke-opacity:1"
         clip-path="url(#clipPath4590)"
         d="m -4639.6343,7344.2769 c 0,9.2739 -7.518,16.7919 -16.792,16.7919 -9.2739,0 -16.7919,-7.518 -16.7919,-16.7919 0,-9.274 7.518,-16.792 16.7919,-16.792 9.274,0 16.792,7.518 16.792,16.792 z"
         id="path4766"
         inkscape:connector-curvature="0" />
      <path
         id="path4768"
         d="m -4262.4651,8517.3959 c 2.5222,0 4.9319,0.2787 7.223,0.8361 0.2268,0.065 0.4543,0.1166 0.6785,0.175 0.4537,0.1296 0.9043,0.2592 1.3485,0.4018 0.2197,0.091 0.4446,0.1491 0.662,0.2204 0.6597,0.2333 1.3139,0.4925 1.9526,0.7777 0.4239,0.188 0.8432,0.3954 1.2576,0.6028 0.2087,0.1037 0.4226,0.2138 0.6287,0.324 1.4409,0.7797 2.8253,1.7033 4.1534,2.7552 0.1899,0.149 0.383,0.2981 0.571,0.4537 0.7491,0.6222 1.4804,1.2988 2.1926,2.0111 3.3905,3.3903 5.7717,7.2019 7.1485,11.4257 0.1432,0.4472 0.2832,0.8873 0.4051,1.3397 0.6743,2.4965 1.0093,5.1357 1.0095,7.9096 -2e-4,5.3302 -1.3316,10.2436 -3.9962,14.7357 -0.9992,1.656 -2.1215,3.1849 -3.3675,4.5835 -0.416,0.4667 -0.8469,0.9184 -1.2908,1.3578 -0.221,0.2204 -0.442,0.4343 -0.6701,0.6482 -0.2281,0.2074 -0.4517,0.4147 -0.6867,0.6157 l -0.01,0 c -0.2333,0.2009 -0.4712,0.4083 -0.7115,0.6027 l -0.01,0 c -0.2398,0.2009 -0.4815,0.4019 -0.728,0.5898 l -0.01,0 c -0.2463,0.188 -0.4907,0.3694 -0.7446,0.5509 l -0.01,0 c -0.2534,0.1815 -0.5094,0.363 -0.7696,0.538 l -0.01,0 c -0.2605,0.1749 -0.5191,0.3564 -0.7859,0.5184 l -0.01,0 c -0.2671,0.1686 -0.5367,0.3371 -0.8109,0.4991 l 0,9.0287 29.2312,1.8489 0,21.0291 -29.2312,1.8398 0,108.0017 c 14.8332,23.2923 -40.2096,14.961 -29.2752,0.072 l 0,-108.0128 -29.2312,-1.849 0,-21.029 29.2312,-1.8398 0,-9.0176 c -2.2056,-1.2936 -4.188,-2.8174 -5.9571,-4.5673 -0.4433,-0.4407 -0.8745,-0.8899 -1.2908,-1.3559 -1.246,-1.3999 -2.3681,-2.9275 -3.3675,-4.5835 -1.4989,-2.5263 -2.5795,-5.183 -3.2351,-7.9757 -0.51,-2.1719 -0.7613,-4.428 -0.7613,-6.7599 0,-0.2528 0,-0.5056 0.01,-0.7544 0.058,-2.4992 0.3876,-4.8875 1.001,-7.1566 0.1238,-0.4537 0.2605,-0.8963 0.4051,-1.3397 1.3768,-4.2238 3.7579,-8.0354 7.1485,-11.4263 0.7123,-0.713 1.4434,-1.3864 2.1925,-2.0105 l 0.01,0 c 1.4997,-1.2463 3.0689,-2.3183 4.716,-3.2101 l 0.01,0 c 0.6164,-0.3306 1.2413,-0.6417 1.8782,-0.9269 l 0.01,0 c 0.2106,-0.091 0.4239,-0.1814 0.6371,-0.2722 0,0 0,0 0.01,0 0.2132,-0.091 0.4219,-0.1814 0.6371,-0.2657 0,0 0,0 0.01,0 0.4329,-0.1685 0.8735,-0.3176 1.3156,-0.4666 0,0 0,0 0.01,0 0.2197,-0.091 0.4401,-0.1297 0.662,-0.2074 0,0 0,0 0.01,0 0.4466,-0.1297 0.8929,-0.2593 1.3485,-0.3695 0,0 0,0 0.01,0 0.2269,-0.065 0.4583,-0.1037 0.6867,-0.162 0,0 0,0 0.01,0 0.2288,-0.065 0.4556,-0.1037 0.6866,-0.1361 0,0 0,0 0.01,0 0.2314,-0.065 0.4615,-0.091 0.695,-0.1296 0,0 0,0 0.01,0 0.2333,-0.065 0.4679,-0.091 0.7032,-0.1167 0,0 0,0 0.01,0 0.236,-0.065 0.4738,-0.065 0.7117,-0.091 0,0 0,0 0.01,0 0.2379,-0.065 0.4796,-0.065 0.7198,-0.091 0,0 0,0 0.01,0 0.2405,-0.065 0.4771,-0.065 0.7198,-0.065 0,0 0,0 0.01,0 0.2431,0 0.4913,-0.065 0.7365,-0.065 0,0 0,0 0.01,0 0.245,0 0.4893,-0.065 0.7364,-0.065 0,0 0,0 0.01,0 0.2495,0 0.5003,-0.01 0.753,-0.01 z"
         style="font-size:773.01678467px;font-style:normal;font-variant:normal;font-weight:normal;font-stretch:normal;line-height:125%;letter-spacing:0px;word-spacing:0px;fill:#fdbc41;fill-opacity:1;stroke:none;display:inline;font-family:FontAwesome;-inkscape-font-specification:FontAwesome"
         inkscape:connector-curvature="0"
         sodipodi:nodetypes="ccccccccccccccccccccccccccccccccccccccccccccccccccccccccccccccccccccccccccccccccccccccc" />
      <g
         transform="translate(0.61292656,0)"
         id="g4770">
        <path
           transform="matrix(-0.90331787,0,0,1,-8464.4527,1213.1077)"
           clip-path="url(#clipPath4434)"
           inkscape:connector-curvature="0"
           id="path4772"
           d="m -4651.0852,7203.3402 c -87.2529,0 -158.1643,70.9109 -158.1643,158.1643 0,87.2534 70.9114,158.2996 158.1643,158.2996 87.253,0 158.2996,-71.0462 158.2996,-158.2996 0,-87.2534 -71.0466,-158.1643 -158.2996,-158.1643 z m 0,24.3747 c 74.0669,0 133.9254,59.7228 133.9249,133.7896 0,74.0669 -59.858,133.9249 -133.9249,133.9249 -74.0668,0 -133.7897,-59.858 -133.7897,-133.9249 0,-74.0668 59.7229,-133.7896 133.7897,-133.7896 z"
           style="font-size:medium;font-style:normal;font-variant:normal;font-weight:normal;font-stretch:normal;text-indent:0;text-align:start;text-decoration:none;line-height:normal;letter-spacing:normal;word-spacing:normal;text-transform:none;direction:ltr;block-progression:tb;writing-mode:lr-tb;text-anchor:start;baseline-shift:baseline;color:#000000;fill:#fdbc41;fill-opacity:1;stroke:none;stroke-width:5.63066292;marker:none;visibility:visible;display:inline;overflow:visible;enable-background:accumulate;font-family:Sans;-inkscape-font-specification:Sans" />
        <path
           style="fill:#fdbc41;fill-opacity:1"
           d="m -4183.2437,8676.9013 -28.7358,1.0553 18.4989,-19.7387 43.0441,-1.5193 1.3999,43.1715 -18.4987,19.7386 -0.8087,-28.7438 c -8.2219,-0.5914 -9.1208,-3.5121 -14.8997,-13.9636 z"
           id="path4774"
           inkscape:connector-curvature="0"
           sodipodi:nodetypes="cccccccc" />
        <path
           sodipodi:nodetypes="cccccccc"
           inkscape:connector-curvature="0"
           id="path4776"
           d="m -4342.9702,8676.9013 28.7358,1.0553 -18.4989,-19.7387 -43.0441,-1.5193 -1.3999,43.1715 18.4987,19.7386 0.8087,-28.7438 c 8.2219,-0.5914 9.1208,-3.5121 14.8997,-13.9636 z"
           style="fill:#fdbc41;fill-opacity:1" />
      </g>
      <path
         transform="matrix(-0.72166902,0,0,0.72166902,-7622.8899,3246.1924)"
         style="fill:#333333;fill-opacity:1;fill-rule:evenodd;stroke:none"
         d="m -4639.6343,7344.2769 c 0,9.2739 -7.518,16.7919 -16.792,16.7919 -9.2739,0 -16.7919,-7.518 -16.7919,-16.7919 0,-9.274 7.518,-16.792 16.7919,-16.792 9.274,0 16.792,7.518 16.792,16.792 z"
         id="path4778"
         inkscape:connector-curvature="0" />
      <path
         inkscape:connector-curvature="0"
         id="path4780"
         d="m -4241.0652,8716.3438 c 0.013,0.3459 0.028,0.6816 0.028,1.0312 0,13.2186 -9.6102,23.9375 -21.4615,23.9375 -11.8513,0 -21.4615,-10.7189 -21.4615,-23.9375 0,-0.3496 0.015,-0.6853 0.028,-1.0312 l 42.8672,0 z"
         style="fill:#fdbc41;fill-opacity:1;stroke:none" />
      <g
         style="font-size:86.13791656px;font-style:normal;font-variant:normal;font-weight:bold;font-stretch:normal;text-align:center;line-height:125%;letter-spacing:0px;word-spacing:0px;text-anchor:middle;fill:#ededed;fill-opacity:1;stroke:none;font-family:Open Sans;-inkscape-font-specification:Open Sans Bold"
         id="text3299">
        <path
           d="m -4442.3449,8794.703 -50.4839,55.0149 -11.6653,-10.7046 50.4839,-55.0148 11.6653,10.7045"
           style="font-size:104.59603882px;fill:#ededed;-inkscape-font-specification:Open Sans Bold"
           id="path3415"
           inkscape:connector-curvature="0" />
        <path
           d="m -4506.637,8717.2654 11.5521,16.4762 -27.6027,59.024 0.2639,0.3763 c 7.797,-6.2569 13.4379,-10.607 16.9227,-13.0503 l 28.7705,-20.1722 8.1216,11.5834 -61.1373,42.866 -11.4641,-16.3507 27.172,-58.6596 -0.2053,-0.2928 c -7.6521,5.9891 -13.1229,10.1368 -16.4127,12.4433 l -28.9377,20.2895 -8.1803,-11.6671 61.1373,-42.866"
           style="font-size:104.59603882px;fill:#ededed;-inkscape-font-specification:Open Sans Bold"
           id="path3417"
           inkscape:connector-curvature="0" />
        <path
           d="m -4537.5866,8614.6676 3.3027,15.4319 -31.513,6.7443 6.1886,28.9161 31.513,-6.7444 3.3134,15.4818 -73.0143,15.6264 -3.3134,-15.4818 28.6164,-6.1244 -6.1886,-28.9161 -28.6163,6.1245 -3.3027,-15.4319 73.0142,-15.6264"
           style="font-size:104.59603882px;fill:#ededed;-inkscape-font-specification:Open Sans Bold"
           id="path3419"
           inkscape:connector-curvature="0" />
        <path
           d="m -4535.4654,8549.8627 -18.0859,4.2539 -1.7589,27.1646 17.3862,6.5508 -1.1022,17.0225 -73.1146,-31.1428 1.2507,-19.3159 76.5269,-21.5556 -1.1022,17.0225 m -31.5811,7.1673 c -16.3945,3.9541 -25.666,6.1856 -27.8144,6.6947 -2.1461,0.4753 -3.8396,0.8092 -5.0804,1.0017 4.2765,1.4029 14.8223,5.3101 31.6375,11.7215 l 1.2573,-19.4179"
           style="font-size:104.59603882px;fill:#ededed;-inkscape-font-specification:Open Sans Bold"
           id="path3421"
           inkscape:connector-curvature="0" />
        <path
           d="m -4521.2061,8493.617 -61.0885,-4.7946 -0.1688,0.4275 c 11.3216,3.7752 18.835,6.3944 22.5402,7.8575 l 32.3018,12.7556 -5.196,13.1582 -69.449,-27.4244 7.916,-20.0462 59.5983,4.5357 0.1126,-0.285 -46.2238,-38.4051 7.9159,-20.0462 69.449,27.4244 -5.4211,13.7283 -32.8719,-12.9806 c -1.5517,-0.6127 -3.3348,-1.3351 -5.349,-2.1672 -2.0018,-0.8636 -7.2979,-3.2112 -15.8884,-7.0428 l -0.1688,0.4275 47.3188,39.3866 -5.3273,13.4908"
           style="font-size:104.59603882px;fill:#ededed;-inkscape-font-specification:Open Sans Bold"
           id="path3423"
           inkscape:connector-curvature="0" />
        <path
           d="m -4549.7272,8386.0743 14.6806,-18.0133 c 6.6896,-8.2082 12.7146,-13.2027 18.075,-14.9834 5.3555,-1.8285 10.5802,-0.667 15.6741,3.4843 3.4575,2.8179 5.6279,5.9484 6.5113,9.3916 0.9049,3.4169 0.4847,6.6541 -1.2606,9.7118 l 0.3959,0.3227 c 3.8081,-3.0018 7.4899,-4.3935 11.0454,-4.1752 3.577,0.192 7.2262,1.8045 10.9477,4.8373 5.2786,4.3021 7.8365,9.5711 7.6736,15.8072 -0.1415,6.2098 -2.8794,12.5874 -8.2139,19.1329 l -17.6489,21.6556 -57.8802,-47.1715 m 32.9246,6.4086 5.8077,-7.1261 c 2.7103,-3.3255 4.153,-6.1467 4.3282,-8.4637 0.1968,-2.3432 -0.8925,-4.4828 -3.2679,-6.4188 -2.2171,-1.8068 -4.4674,-2.2792 -6.7512,-1.4172 -2.2887,0.8142 -4.8634,2.9764 -7.7243,6.4866 l -5.2592,6.4531 12.8667,10.4861 m 9.7391,7.9372 15.0837,12.293 6.5175,-7.9971 c 2.7533,-3.3783 4.1393,-6.3995 4.1582,-9.0635 0.019,-2.6639 -1.3046,-5.0821 -3.9703,-7.2547 -4.8036,-3.9148 -10.0016,-2.4411 -15.5943,4.4211 l -6.1948,7.6012"
           style="font-size:104.59603882px;fill:#ededed;-inkscape-font-specification:Open Sans Bold"
           id="path3425"
           inkscape:connector-curvature="0" />
        <path
           d="m -4439.384,8283.8122 27.9361,39.419 c 3.1892,4.5003 4.9709,9.1635 5.3448,13.9897 0.4017,4.8067 -0.6605,9.4613 -3.1866,13.9641 -2.5261,4.5028 -6.3866,8.595 -11.5813,12.2764 -7.8338,5.5518 -15.335,7.8632 -22.5035,6.9341 -7.1882,-0.9568 -13.253,-4.9215 -18.1945,-11.8942 l -27.8179,-39.2523 12.8757,-9.125 26.43,37.2939 c 3.3271,4.6948 6.7128,7.47 10.1571,8.3259 3.4443,0.8558 7.3471,-0.2617 11.7085,-3.3526 4.2224,-2.9924 6.5005,-6.2553 6.8343,-9.7886 0.3418,-3.5807 -1.1607,-7.7324 -4.5075,-12.4549 l -26.3709,-37.2105 12.8757,-9.125"
           style="font-size:104.59603882px;fill:#ededed;-inkscape-font-specification:Open Sans Bold"
           id="path3427"
           inkscape:connector-curvature="0" />
        <path
           d="m -4378.6259,8292.3398 4.8039,-1.7339 c 4.7078,-1.6992 7.8994,-3.738 9.5748,-6.1165 1.6754,-2.3784 1.9062,-5.249 0.6925,-8.6117 -1.2022,-3.3307 -3.2106,-5.2844 -6.025,-5.8614 -2.7825,-0.5883 -6.5757,-0.016 -11.3795,1.7183 l -4.5157,1.6299 6.849,18.9753 m 4.3695,12.1058 9.7272,26.9498 -14.892,5.3751 -25.3499,-70.2328 20.4646,-7.3865 c 9.5437,-3.4446 17.2354,-4.248 23.0751,-2.4103 5.8281,1.8059 10.0194,6.2476 12.5741,13.3253 1.4911,4.1314 1.6836,8.2247 0.5773,12.28 -1.118,4.0234 -3.4291,7.6991 -6.9336,11.0273 16.2673,11.9742 26.8346,19.6891 31.7018,23.1449 l -16.5254,5.9647 -26.4928,-20.8985 -7.9264,2.861"
           style="font-size:104.59603882px;fill:#ededed;-inkscape-font-specification:Open Sans Bold"
           id="path3429"
           inkscape:connector-curvature="0" />
        <path
           d="m -4288.8166,8271.1417 29.5219,-2.4322 3.1785,38.5821 c -4.656,1.9551 -9.0797,3.4128 -13.2709,4.373 -4.1547,0.9914 -8.4377,1.6688 -12.8489,2.0322 -11.232,0.9254 -20.0882,-1.6589 -26.5689,-7.7527 -6.4495,-6.1306 -10.183,-15.3717 -11.2006,-27.7234 -0.9896,-12.0123 1.6661,-21.6602 7.9671,-28.9438 6.3349,-7.2862 15.5933,-11.4311 27.7754,-12.4348 7.6349,-0.6289 15.1242,0.2915 22.4679,2.7611 l -4.2027,13.0551 c -5.653,-2.2673 -11.4147,-3.1592 -17.2851,-2.6756 -6.8206,0.5619 -12.0952,3.3025 -15.8237,8.2217 -3.7285,4.9193 -5.2741,11.2473 -4.6367,18.984 0.6653,8.0762 2.8199,14.1164 6.4637,18.1208 3.6748,3.9677 8.6681,5.6916 14.9797,5.1716 3.2915,-0.2711 6.6059,-0.8858 9.9434,-1.8441 l -1.279,-15.5244 -14.0992,1.1615 -1.0819,-13.1321"
           style="font-size:104.59603882px;fill:#ededed;-inkscape-font-specification:Open Sans Bold"
           id="path3431"
           inkscape:connector-curvature="0" />
        <path
           d="m -4195.8604,8320.0911 -15.0627,-3.9697 19.0286,-72.2023 41.3854,10.9069 -3.3059,12.544 -26.3227,-6.9372 -4.9068,18.6185 24.4954,6.4557 -3.2929,12.4946 -24.4954,-6.4556 -7.523,28.5451"
           style="font-size:104.59603882px;fill:#ededed;-inkscape-font-specification:Open Sans Bold"
           id="path3433"
           inkscape:connector-curvature="0" />
        <path
           d="m -4066.0634,8296.0762 -23.4719,42.2297 c -2.6797,4.8212 -6.1148,8.4433 -10.3053,10.8666 -4.1608,2.4398 -8.8173,3.4938 -13.9696,3.1621 -5.1524,-0.3317 -10.5111,-2.0442 -16.0762,-5.1374 -8.3924,-4.6646 -13.7189,-10.4298 -15.9796,-17.2957 -2.2441,-6.8957 -1.2903,-14.0784 2.8616,-21.5482 l 23.3726,-42.0512 13.7939,7.6668 -22.2065,39.9531 c -2.7955,5.0295 -3.8348,9.2822 -3.1178,12.758 0.7169,3.4759 3.4116,6.5123 8.084,9.1092 4.5235,2.5143 8.4505,3.1583 11.781,1.932 3.3766,-1.2395 6.471,-4.3888 9.2831,-9.448 l 22.1568,-39.8638 13.7939,7.6668"
           style="font-size:104.59603882px;fill:#ededed;-inkscape-font-specification:Open Sans Bold"
           id="path3435"
           inkscape:connector-curvature="0" />
        <path
           d="m -4041.4061,8420.2129 -13.9486,-14.5034 18.1964,-62.567 -0.3186,-0.3313 c -6.742,7.3816 -11.6467,12.5475 -14.7142,15.4977 l -25.3257,24.3571 -9.8066,-10.1965 53.8172,-51.7588 13.8425,14.3929 -17.827,62.1408 0.2478,0.2577 c 6.64,-7.0947 11.4079,-12.0345 14.3037,-14.8195 l 25.473,-24.4987 9.8773,10.2702 -53.8172,51.7588"
           style="font-size:104.59603882px;fill:#ededed;-inkscape-font-specification:Open Sans Bold"
           id="path3437"
           inkscape:connector-curvature="0" />
        <path
           d="m -4003.0763,8489.4105 -8.3901,-15.8996 18.6952,-31.9824 -7.3683,-3.6766 -23.5783,12.4421 -7.389,-14.0024 66.0372,-34.8475 7.389,14.0025 -30.2181,15.9459 10.677,1.4109 31.8879,6.0408 8.1994,15.5381 -41.3805,-7.6147 -24.5614,42.6429"
           style="font-size:104.59603882px;fill:#ededed;-inkscape-font-specification:Open Sans Bold"
           id="path3439"
           inkscape:connector-curvature="0" />
        <path
           d="m -3994.0899,8526.9195 -3.8775,-15.3502 59.6184,-15.0597 -4.9657,-19.6582 12.7754,-3.227 13.8088,54.6667 -12.7753,3.227 -4.9657,-19.6582 -59.6184,15.0596"
           style="font-size:104.59603882px;fill:#ededed;-inkscape-font-specification:Open Sans Bold"
           id="path3441"
           inkscape:connector-curvature="0" />
        <path
           d="m -3989.184,8617.0818 60.5148,-9.6308 0.064,-0.4552 c -11.8907,-1.0216 -19.8083,-1.8102 -23.753,-2.3658 l -34.3896,-4.8442 1.9732,-14.0087 73.9378,10.4148 -3.0062,21.3419 -59.0054,9.534 -0.043,0.3034 53.9263,26.5246 -3.0062,21.3418 -73.9378,-10.4148 2.0587,-14.6156 34.9966,4.9295 c 1.652,0.2327 3.5546,0.5179 5.7076,0.8556 2.1483,0.3713 7.8466,1.4146 17.0951,3.1301 l 0.064,-0.4552 -55.2205,-27.2226 2.0232,-14.3628"
           style="font-size:104.59603882px;fill:#ededed;-inkscape-font-specification:Open Sans Bold"
           id="path3443"
           inkscape:connector-curvature="0" />
        <path
           d="m -4023.4451,8723.8174 18.353,2.8917 11.888,-24.4885 -13.6245,-12.6319 7.4496,-15.3455 55.9378,56.4497 -8.4533,17.4131 -79.0002,-8.9431 7.4496,-15.3455 m 31.9491,5.2908 c 16.6736,2.5306 26.1012,3.9659 28.2828,4.3059 2.1667,0.3705 3.8608,0.7009 5.0825,0.9912 -3.43,-2.9141 -11.7191,-10.5147 -24.8675,-22.802 l -8.4978,17.5049"
           style="font-size:104.59603882px;fill:#ededed;-inkscape-font-specification:Open Sans Bold"
           id="path3445"
           inkscape:connector-curvature="0" />
        <path
           d="m -4081.29,8796.0449 13.5295,-14.8952 63.6519,13.9348 0.309,-0.3402 c -7.8196,-6.2287 -13.3045,-10.7738 -16.4549,-13.6354 l -26.0099,-23.6251 9.5119,-10.472 55.2709,50.2034 -13.4265,14.7818 -63.2017,-13.5949 -0.2403,0.2647 c 7.5263,6.1462 12.7765,10.57 15.7505,13.2714 l 26.1611,23.7625 -9.5806,10.5476 -55.2709,-50.2034"
           style="font-size:104.59603882px;fill:#ededed;-inkscape-font-specification:Open Sans Bold"
           id="path3447"
           inkscape:connector-curvature="0" />
      </g>
      <g
         style="font-size:21.53447914px;font-style:normal;font-variant:normal;font-weight:normal;font-stretch:normal;text-align:center;line-height:125%;letter-spacing:0px;word-spacing:0px;text-anchor:middle;fill:#ededed;fill-opacity:1;stroke:none;font-family:Open Sans;-inkscape-font-specification:Open Sans"
         id="text3371">
        <path
           d="m -4437.2616,8844.5491 16.8481,9.5355 14.3271,-13.0178 -3.7382,19.0109 16.8011,9.5089 -19.2947,2.2527 -3.7381,19.0109 -8.169,-17.7343 -19.3622,2.1524 14.327,-13.0178 -8.0011,-17.7014"
           style="font-size:110.74874878px"
           id="path3450"
           inkscape:connector-curvature="0" />
        <path
           d="m -4367.1864,8923.7142 -14.9239,-4.4631 21.3937,-71.5372 41.0043,12.2627 -3.7169,12.4285 -26.0802,-7.7996 -5.5168,18.447 24.2698,7.2581 -3.7022,12.3796 -24.2698,-7.2581 -8.458,28.2821"
           style="font-size:104.59603882px;font-weight:bold;letter-spacing:15.38177109px;fill:#ededed;-inkscape-font-specification:Open Sans Bold"
           id="path3452"
           inkscape:connector-curvature="0" />
        <path
           d="m -4292.9102,8896.6566 5.0957,0.3419 c 4.9939,0.335 8.7356,-0.25 11.2254,-1.7551 2.4896,-1.5051 3.8541,-4.0411 4.0935,-7.6082 0.237,-3.533 -0.8174,-6.129 -3.163,-7.7879 -2.3118,-1.6565 -6.0155,-2.6557 -11.1113,-2.9976 l -4.79,-0.3214 -1.3503,20.1283 m -0.8615,12.8414 -1.9178,28.5873 -15.7969,-1.0598 4.9979,-74.5002 21.708,1.4563 c 10.1236,0.6792 17.4901,3.0332 22.0998,7.062 4.6117,3.9949 6.6658,9.7462 6.1622,17.2539 -0.2941,4.3824 -1.7621,8.2083 -4.4043,11.4776 -2.6399,3.2354 -6.233,5.6731 -10.7792,7.3132 10.0871,17.5002 16.6651,28.8103 19.7342,33.9301 l -17.5295,-1.176 -15.8664,-29.7804 -8.408,-0.564"
           style="font-size:104.59603882px;font-weight:bold;letter-spacing:15.38177109px;fill:#ededed;-inkscape-font-specification:Open Sans Bold"
           id="path3454"
           inkscape:connector-curvature="0" />
        <path
           d="m -4184.6255,8931.6409 -42.4838,6.6612 -11.5662,-73.7664 42.4838,-6.6612 2.0094,12.8157 -26.8425,4.2088 2.5395,16.1963 24.9757,-3.916 2.0094,12.8158 -24.9756,3.916 2.9825,19.0219 26.8425,-4.2088 2.0253,12.9167"
           style="font-size:104.59603882px;font-weight:bold;letter-spacing:15.38177109px;fill:#ededed;-inkscape-font-specification:Open Sans Bold"
           id="path3456"
           inkscape:connector-curvature="0" />
        <path
           d="m -4154.814,8922.8581 -24.3589,-70.5826 14.9662,-5.165 24.3589,70.5826 -14.9662,5.165"
           style="font-size:104.59603882px;font-weight:bold;letter-spacing:15.38177109px;fill:#ededed;-inkscape-font-specification:Open Sans Bold"
           id="path3458"
           inkscape:connector-curvature="0" />
        <path
           d="m -4129.2694,8868.3742 16.7557,-9.697 -3.9674,-18.947 14.4983,12.8525 16.7089,-9.6699 -7.8307,17.7775 14.4982,12.8525 -19.4287,-1.9392 -7.9515,17.7849 -3.9674,-18.947 -19.3154,-2.0673"
           style="font-size:110.74874878px"
           id="path3460"
           inkscape:connector-curvature="0" />
      </g>
      <path
         inkscape:connector-curvature="0"
         id="path3142"
         d="m -4634.2944,8586.7929 c 0,205.354 166.4722,371.8262 371.8262,371.8262 205.354,0 371.8262,-166.4722 371.8262,-371.8262 0,-205.354 -166.4722,-371.8262 -371.8262,-371.8262 -205.354,0 -371.8262,166.4722 -371.8262,371.8262 z"
         style="fill:none;stroke:#e5287a;stroke-width:13.8409338;stroke-linecap:square;stroke-linejoin:round;stroke-miterlimit:4;stroke-opacity:1;stroke-dasharray:none;stroke-dashoffset:0;display:inline" />
    </g>
  </g>
</svg>
