<?xml version="1.0" encoding="utf-8"?>
<!-- Generator: Adobe Illustrator 18.1.1, SVG Export Plug-In . SVG Version: 6.00 Build 0)  -->
<!DOCTYPE svg PUBLIC "-//W3C//DTD SVG 1.1//EN" "http://www.w3.org/Graphics/SVG/1.1/DTD/svg11.dtd">
<svg version="1.1"
	 id="Freifunk_Hamburg_Logo" sodipodi:docname="Neues Dokument 3" inkscape:version="0.48.5 r10040" xmlns:dc="http://purl.org/dc/elements/1.1/" xmlns:cc="http://creativecommons.org/ns#" xmlns:rdf="http://www.w3.org/1999/02/22-rdf-syntax-ns#" xmlns:svg="http://www.w3.org/2000/svg" xmlns:sodipodi="http://sodipodi.sourceforge.net/DTD/sodipodi-0.dtd" xmlns:inkscape="http://www.inkscape.org/namespaces/inkscape"
	 xmlns="http://www.w3.org/2000/svg" xmlns:xlink="http://www.w3.org/1999/xlink" x="0px" y="0px"
	 viewBox="-43.8 330.2 173.5 194.6" enable-background="new -43.8 330.2 173.5 194.6" xml:space="preserve">
<path id="Anker" fill="#FABA42" d="M115.9,466.1l-27.9,1l-12,12.8l17.4-0.6c-11.3,10.6-25.5,17.7-41,19.8v-66l18.9-1.2v-13.6
	L52.5,417v-5.9c5.7-3.3,9.5-9.4,9.5-16.5c0-10.5-8.5-19-19-19s-19,8.5-19,19c0,7,3.8,13.2,9.5,16.5v5.9l-18.9,1.2v13.6l18.9,1.2V499
	c-15.5-2.1-29.6-9.2-41-19.8l17.4,0.6l-12-12.8l-27.9-1l-0.9,27.9l12,12.8l0.5-17.3c13.7,13.5,31.1,22.6,50.3,25.2
	c2.5,3.8,6.6,6.2,11.1,6.2c4.5,0,8.6-2.4,11.1-6.2c19.2-2.6,36.5-11.6,50.3-25.1l0.5,17.3l12-12.8L115.9,466.1z M43,386.8
	c4.3,0,7.8,3.5,7.8,7.8c0,4.3-3.5,7.8-7.8,7.8c-4.3,0-7.8-3.5-7.8-7.8C35.2,390.3,38.7,386.8,43,386.8z"/>
</svg>
