<?xml version="1.0" encoding="utf-8"?>
<!-- Generator: Adobe Illustrator 18.1.1, SVG Export Plug-In . SVG Version: 6.00 Build 0)  -->
<!DOCTYPE svg PUBLIC "-//W3C//DTD SVG 1.1//EN" "http://www.w3.org/Graphics/SVG/1.1/DTD/svg11.dtd">
<svg version="1.1"
	 id="svg7351" sodipodi:docname="netz.svg" inkscape:version="0.48.5 r10040" xmlns:dc="http://purl.org/dc/elements/1.1/" xmlns:cc="http://creativecommons.org/ns#" xmlns:rdf="http://www.w3.org/1999/02/22-rdf-syntax-ns#" xmlns:svg="http://www.w3.org/2000/svg" xmlns:sodipodi="http://sodipodi.sourceforge.net/DTD/sodipodi-0.dtd" xmlns:inkscape="http://www.inkscape.org/namespaces/inkscape"
	 xmlns="http://www.w3.org/2000/svg" xmlns:xlink="http://www.w3.org/1999/xlink" x="0px" y="0px"
	 viewBox="527 -125.2 1650.6 1090.1" enable-background="new 527 -125.2 1650.6 1090.1" xml:space="preserve">
<sodipodi:namedview  fit-margin-bottom="0" fit-margin-right="0" inkscape:guide-bbox="true" inkscape:window-maximized="0" inkscape:window-y="14" inkscape:current-layer="layer1" inkscape:document-units="px" inkscape:pageopacity="1" inkscape:window-height="886" inkscape:window-x="0" inkscape:window-width="1600" inkscape:pageshadow="2" fit-margin-left="0" fit-margin-top="0" showguides="true" showborder="false" showgrid="false" inkscape:cy="545.04497" inkscape:cx="825.32315" id="base" pagecolor="#333333" inkscape:zoom="0.61831447" borderopacity="1.0" bordercolor="#666666">
	</sodipodi:namedview>
<path id="path8540" sodipodi:nodetypes="cc" inkscape:connector-curvature="0" fill="none" stroke="#EDEDED" stroke-width="7" stroke-linecap="round" d="
	M1043.2,708.9l160.3,29.1"/>
<path id="path8630" sodipodi:nodetypes="cc" inkscape:connector-curvature="0" fill="none" stroke="#EDEDED" stroke-width="7" stroke-linecap="round" d="
	M847.9,818.3l98-78"/>
<path id="path8542" sodipodi:nodetypes="cc" inkscape:connector-curvature="0" fill="none" stroke="#EDEDED" stroke-width="7" stroke-linecap="round" d="
	M1441,803.1l-141.6-41"/>
<path id="path8693" sodipodi:nodetypes="cc" inkscape:connector-curvature="0" fill="none" stroke="#EDEDED" stroke-width="7" stroke-linecap="round" d="
	M840.3,581.3l96.5,79.9"/>
<path id="path8703" sodipodi:nodetypes="cc" inkscape:connector-curvature="0" fill="none" stroke="#EDEDED" stroke-width="7" stroke-linecap="round" d="
	M1668.5,754.2l-111.1,55.6"/>
<path id="path8824" sodipodi:nodetypes="cc" inkscape:connector-curvature="0" fill="none" stroke="#EDEDED" stroke-width="7" stroke-linecap="round" d="
	M1089.6,27.4l120,6.6"/>
<path id="path8844" sodipodi:nodetypes="cc" inkscape:connector-curvature="0" fill="none" stroke="#EDEDED" stroke-width="7" stroke-linecap="round" d="
	M1943.1,339.4l59.6,122.6"/>
<path id="path8916" sodipodi:nodetypes="cc" inkscape:connector-curvature="0" fill="none" stroke="#EDEDED" stroke-width="7" stroke-linecap="round" d="
	M1309.6,362.4l161.8,117.8"/>
<path id="path8922" sodipodi:nodetypes="cc" inkscape:connector-curvature="0" fill="none" stroke="#EDEDED" stroke-width="7" stroke-linecap="round" d="
	M1299.4,305.7l182.2-83"/>
<path id="path8928" sodipodi:nodetypes="cc" inkscape:connector-curvature="0" fill="none" stroke="#EDEDED" stroke-width="7" stroke-linecap="round" d="
	M1520.7,443.1l12.5-188"/>
<path id="path8934" sodipodi:nodetypes="cc" inkscape:connector-curvature="0" fill="none" stroke="#EDEDED" stroke-width="7" stroke-linecap="round" d="
	M1031.2,639.1l198.4-263"/>
<path id="path8938" sodipodi:nodetypes="cc" inkscape:connector-curvature="0" fill="none" stroke="#EDEDED" stroke-width="7" stroke-linecap="round" d="
	M1254.8,255.8l12.7-161.5"/>
<path id="path8940" sodipodi:nodetypes="cc" inkscape:connector-curvature="0" fill="none" stroke="#EDEDED" stroke-width="7" stroke-linecap="round" d="
	M1499.5,168.3L1323.4,65.2"/>
<path id="path8942" sodipodi:nodetypes="cc" inkscape:connector-curvature="0" fill="none" stroke="#EDEDED" stroke-width="7" stroke-linecap="round" d="
	M1850.9,275.9l-256-59.4"/>
<path id="path9319" sodipodi:nodetypes="cc" inkscape:connector-curvature="0" fill="none" stroke="#EDEDED" stroke-width="7" stroke-linecap="round" d="
	M1185.5,319.2l-242.1-17.1"/>
<g id="g8688" transform="translate(0.93173643,-31.434432)">
	<g id="text8626">
		<path id="path9543" inkscape:connector-curvature="0" fill="#FDBC41" d="M813.2,924.7c1-1,1.6-2.3,1.6-3.7s-0.5-2.7-1.6-3.7
			c-1-1-2.2-1.6-3.7-1.6c-1.4,0-2.7,0.5-3.7,1.6c-1,1-1.5,2.2-1.5,3.7c0,1.4,0.5,2.7,1.5,3.7c1,1,2.3,1.5,3.7,1.5
			C810.9,926.2,812.2,925.7,813.2,924.7 M828.3,910.5v-46.1c0-0.6-0.2-1-0.7-1.4c-0.4-0.4-0.9-0.7-1.4-0.7h-33.5
			c-0.6,0-1.1,0.2-1.5,0.7c-0.4,0.4-0.6,0.9-0.6,1.4v46.1c0,0.6,0.2,1.1,0.6,1.5c0.4,0.4,0.9,0.6,1.5,0.6h33.5c0.6,0,1-0.2,1.4-0.6
			C828.1,911.6,828.3,911.1,828.3,910.5 M814.7,856c0.7,0,1-0.3,1-1c0-0.7-0.3-1-1-1h-10.5c-0.7,0-1,0.3-1,1c0,0.7,0.3,1,1,1H814.7
			 M834.6,854v67c0,2.3-0.8,4.2-2.5,5.9c-1.7,1.7-3.6,2.5-5.9,2.5h-33.5c-2.3,0-4.2-0.8-5.9-2.5c-1.7-1.7-2.5-3.6-2.5-5.9v-67
			c0-2.3,0.8-4.2,2.5-5.9c1.7-1.7,3.6-2.5,5.9-2.5h33.5c2.3,0,4.2,0.8,5.9,2.5C833.8,849.7,834.6,851.7,834.6,854"/>
	</g>
	
		<path id="path4355-8" inkscape:connector-curvature="0" fill="none" stroke="#E5287A" stroke-width="4.6614" stroke-linecap="square" stroke-linejoin="round" d="
		M704.9,887.5c0,57.8,46.8,104.6,104.6,104.6c57.8,0,104.6-46.8,104.6-104.6s-46.8-104.6-104.6-104.6
		C751.7,782.9,704.9,829.7,704.9,887.5z"/>
</g>
<g id="g8695" transform="translate(-5.1761264,-335.18249)">
	<g id="text8697">
		<path id="path9546" inkscape:connector-curvature="0" fill="#FDBC41" d="M813.2,924.7c1-1,1.6-2.3,1.6-3.7s-0.5-2.7-1.6-3.7
			c-1-1-2.2-1.6-3.7-1.6c-1.4,0-2.7,0.5-3.7,1.6c-1,1-1.5,2.2-1.5,3.7c0,1.4,0.5,2.7,1.5,3.7c1,1,2.3,1.5,3.7,1.5
			C810.9,926.2,812.2,925.7,813.2,924.7 M828.3,910.5v-46.1c0-0.6-0.2-1-0.7-1.4c-0.4-0.4-0.9-0.7-1.4-0.7h-33.5
			c-0.6,0-1.1,0.2-1.5,0.7c-0.4,0.4-0.6,0.9-0.6,1.4v46.1c0,0.6,0.2,1.1,0.6,1.5c0.4,0.4,0.9,0.6,1.5,0.6h33.5c0.6,0,1-0.2,1.4-0.6
			C828.1,911.6,828.3,911.1,828.3,910.5 M814.7,856c0.7,0,1-0.3,1-1c0-0.7-0.3-1-1-1h-10.5c-0.7,0-1,0.3-1,1c0,0.7,0.3,1,1,1H814.7
			 M834.6,854v67c0,2.3-0.8,4.2-2.5,5.9c-1.7,1.7-3.6,2.5-5.9,2.5h-33.5c-2.3,0-4.2-0.8-5.9-2.5c-1.7-1.7-2.5-3.6-2.5-5.9v-67
			c0-2.3,0.8-4.2,2.5-5.9c1.7-1.7,3.6-2.5,5.9-2.5h33.5c2.3,0,4.2,0.8,5.9,2.5C833.8,849.7,834.6,851.7,834.6,854"/>
	</g>
	
		<path id="path8701" inkscape:connector-curvature="0" fill="none" stroke="#E5287A" stroke-width="4.6614" stroke-linecap="square" stroke-linejoin="round" d="
		M704.9,887.5c0,57.8,46.8,104.6,104.6,104.6c57.8,0,104.6-46.8,104.6-104.6s-46.8-104.6-104.6-104.6
		C751.7,782.9,704.9,829.7,704.9,887.5z"/>
</g>
<g id="g8705" transform="matrix(-1,0,0,1,837.97445,-149.11561)">
	<g id="text8707">
		<path id="path9549" inkscape:connector-curvature="0" fill="#FDBC41" d="M-876.2,924.7c1-1,1.6-2.3,1.6-3.7s-0.5-2.7-1.6-3.7
			c-1-1-2.2-1.6-3.7-1.6c-1.4,0-2.7,0.5-3.7,1.6c-1,1-1.5,2.2-1.5,3.7c0,1.4,0.5,2.7,1.5,3.7c1,1,2.3,1.5,3.7,1.5
			C-878.4,926.2-877.2,925.7-876.2,924.7 M-861,910.5v-46.1c0-0.6-0.2-1-0.7-1.4c-0.4-0.4-0.9-0.7-1.4-0.7h-33.5
			c-0.6,0-1.1,0.2-1.5,0.7c-0.4,0.4-0.6,0.9-0.6,1.4v46.1c0,0.6,0.2,1.1,0.6,1.5c0.4,0.4,0.9,0.6,1.5,0.6h33.5c0.6,0,1-0.2,1.4-0.6
			C-861.2,911.6-861,911.1-861,910.5 M-874.6,856c0.7,0,1-0.3,1-1c0-0.7-0.3-1-1-1h-10.5c-0.7,0-1,0.3-1,1c0,0.7,0.3,1,1,1H-874.6
			 M-854.7,854v67c0,2.3-0.8,4.2-2.5,5.9c-1.7,1.7-3.6,2.5-5.9,2.5h-33.5c-2.3,0-4.2-0.8-5.9-2.5c-1.7-1.7-2.5-3.6-2.5-5.9v-67
			c0-2.3,0.8-4.2,2.5-5.9c1.7-1.7,3.6-2.5,5.9-2.5h33.5c2.3,0,4.2,0.8,5.9,2.5C-855.5,849.7-854.7,851.7-854.7,854"/>
	</g>
	
		<path id="path8711" inkscape:connector-curvature="0" fill="none" stroke="#E5287A" stroke-width="4.6614" stroke-linecap="square" stroke-linejoin="round" d="
		M-984.4,887.5c0,57.8,46.8,104.6,104.6,104.6c57.8,0,104.6-46.8,104.6-104.6s-46.8-104.6-104.6-104.6
		C-937.6,782.9-984.4,829.7-984.4,887.5z"/>
</g>
<g id="g8826" transform="translate(233.69345,-857.5896)">
	<g id="text8828">
		<path id="path9552" inkscape:connector-curvature="0" fill="#FDBC41" d="M813.2,924.7c1-1,1.6-2.3,1.6-3.7s-0.5-2.7-1.6-3.7
			c-1-1-2.2-1.6-3.7-1.6c-1.4,0-2.7,0.5-3.7,1.6c-1,1-1.5,2.2-1.5,3.7c0,1.4,0.5,2.7,1.5,3.7c1,1,2.3,1.5,3.7,1.5
			C810.9,926.2,812.2,925.7,813.2,924.7 M828.3,910.5v-46.1c0-0.6-0.2-1-0.7-1.4c-0.4-0.4-0.9-0.7-1.4-0.7h-33.5
			c-0.6,0-1.1,0.2-1.5,0.7c-0.4,0.4-0.6,0.9-0.6,1.4v46.1c0,0.6,0.2,1.1,0.6,1.5c0.4,0.4,0.9,0.6,1.5,0.6h33.5c0.6,0,1-0.2,1.4-0.6
			C828.1,911.6,828.3,911.1,828.3,910.5 M814.7,856c0.7,0,1-0.3,1-1c0-0.7-0.3-1-1-1h-10.5c-0.7,0-1,0.3-1,1c0,0.7,0.3,1,1,1H814.7
			 M834.6,854v67c0,2.3-0.8,4.2-2.5,5.9c-1.7,1.7-3.6,2.5-5.9,2.5h-33.5c-2.3,0-4.2-0.8-5.9-2.5c-1.7-1.7-2.5-3.6-2.5-5.9v-67
			c0-2.3,0.8-4.2,2.5-5.9c1.7-1.7,3.6-2.5,5.9-2.5h33.5c2.3,0,4.2,0.8,5.9,2.5C833.8,849.7,834.6,851.7,834.6,854"/>
	</g>
	
		<path id="path8832" inkscape:connector-curvature="0" fill="none" stroke="#E5287A" stroke-width="4.6614" stroke-linecap="square" stroke-linejoin="round" d="
		M704.9,887.5c0,57.8,46.8,104.6,104.6,104.6c57.8,0,104.6-46.8,104.6-104.6s-46.8-104.6-104.6-104.6
		C751.7,782.9,704.9,829.7,704.9,887.5z"/>
</g>
<path fill="#FDBC41" d="M1287.6,331.2c-0.8-0.8-1.8-1.2-2.9-1.2h-4.1v-8.2c0-1.5-0.5-2.8-1.6-3.8c-1.1-1.1-2.4-1.6-3.8-1.6h-21.8
	v-8.2h4.1c1.1,0,2.1-0.4,2.9-1.2c0.8-0.8,1.2-1.8,1.2-2.9v-13.6c0-1.1-0.4-2.1-1.2-2.9c-0.8-0.8-1.8-1.2-2.9-1.2h-13.6
	c-1.1,0-2.1,0.4-2.9,1.2c-0.8,0.8-1.2,1.8-1.2,2.9v13.6c0,1.1,0.4,2.1,1.2,2.9c0.8,0.8,1.8,1.2,2.9,1.2h4.1v8.2H1226
	c-1.5,0-2.8,0.5-3.8,1.6c-1.1,1.1-1.6,2.4-1.6,3.8v8.2h-4.1c-1.1,0-2.1,0.4-2.9,1.2c-0.8,0.8-1.2,1.8-1.2,2.9v13.6
	c0,1.1,0.4,2.1,1.2,2.9s1.8,1.2,2.9,1.2h13.6c1.1,0,2.1-0.4,2.9-1.2c0.8-0.8,1.2-1.8,1.2-2.9v-13.6c0-1.1-0.4-2.1-1.2-2.9
	c-0.8-0.8-1.8-1.2-2.9-1.2h-4.1v-8.2h21.8v8.2h-4.1c-1.1,0-2.1,0.4-2.9,1.2c-0.8,0.8-1.2,1.8-1.2,2.9v13.6c0,1.1,0.4,2.1,1.2,2.9
	c0.8,0.8,1.8,1.2,2.9,1.2h13.6c1.1,0,2.1-0.4,2.9-1.2s1.2-1.8,1.2-2.9v-13.6c0-1.1-0.4-2.1-1.2-2.9c-0.8-0.8-1.8-1.2-2.9-1.2h-4.1
	v-8.2h21.8v8.2h-4.1c-1.1,0-2.1,0.4-2.9,1.2c-0.8,0.8-1.2,1.8-1.2,2.9v13.6c0,1.1,0.4,2.1,1.2,2.9c0.8,0.8,1.8,1.2,2.9,1.2h13.6
	c1.1,0,2.1-0.4,2.9-1.2c0.8-0.8,1.2-1.8,1.2-2.9v-13.6h0C1288.8,333,1288.4,332,1287.6,331.2z"/>
<g id="text8908">
	<path id="path9558" inkscape:connector-curvature="0" fill="#FDBC41" d="M1575.5,213.7v13.6c0,1.1-0.4,2.1-1.2,2.9
		c-0.8,0.8-1.8,1.2-2.9,1.2h-13.6c-1.1,0-2.1-0.4-2.9-1.2c-0.8-0.8-1.2-1.8-1.2-2.9v-13.6c0-1.1,0.4-2.1,1.2-2.9
		c0.8-0.8,1.8-1.2,2.9-1.2h4.1v-8.2H1540v8.2h4.1c1.1,0,2.1,0.4,2.9,1.2c0.8,0.8,1.2,1.8,1.2,2.9v13.6c0,1.1-0.4,2.1-1.2,2.9
		c-0.8,0.8-1.8,1.2-2.9,1.2h-13.6c-1.1,0-2.1-0.4-2.9-1.2c-0.8-0.8-1.2-1.8-1.2-2.9v-13.6c0-1.1,0.4-2.1,1.2-2.9
		c0.8-0.8,1.8-1.2,2.9-1.2h4.1v-8.2h-21.8v8.2h4.1c1.1,0,2.1,0.4,2.9,1.2c0.8,0.8,1.2,1.8,1.2,2.9v13.6c0,1.1-0.4,2.1-1.2,2.9
		c-0.8,0.8-1.8,1.2-2.9,1.2h-13.6c-1.1,0-2.1-0.4-2.9-1.2c-0.8-0.8-1.2-1.8-1.2-2.9v-13.6c0-1.1,0.4-2.1,1.2-2.9
		c0.8-0.8,1.8-1.2,2.9-1.2h4.1v-8.2c0-1.5,0.5-2.8,1.6-3.8c1.1-1.1,2.4-1.6,3.8-1.6h21.8v-8.2h-4.1c-1.1,0-2.1-0.4-2.9-1.2
		c-0.8-0.8-1.2-1.8-1.2-2.9V170c0-1.1,0.4-2.1,1.2-2.9c0.8-0.8,1.8-1.2,2.9-1.2h13.6c1.1,0,2.1,0.4,2.9,1.2c0.8,0.8,1.2,1.8,1.2,2.9
		v13.6c0,1.1-0.4,2.1-1.2,2.9c-0.8,0.8-1.8,1.2-2.9,1.2h-4.1v8.2h21.8c1.5,0,2.8,0.5,3.8,1.6c1.1,1.1,1.6,2.4,1.6,3.8v8.2h4.1
		c1.1,0,2.1,0.4,2.9,1.2C1575.1,211.5,1575.5,212.5,1575.5,213.7"/>
</g>
<g id="text8912">
	<path id="path9561" inkscape:connector-curvature="0" fill="#FDBC41" d="M1557.1,504v13.6c0,1.1-0.4,2.1-1.2,2.9s-1.8,1.2-2.9,1.2
		h-13.6c-1.1,0-2.1-0.4-2.9-1.2c-0.8-0.8-1.2-1.8-1.2-2.9V504c0-1.1,0.4-2.1,1.2-2.9c0.8-0.8,1.8-1.2,2.9-1.2h4.1v-8.2h-21.8v8.2
		h4.1c1.1,0,2.1,0.4,2.9,1.2c0.8,0.8,1.2,1.8,1.2,2.9v13.6c0,1.1-0.4,2.1-1.2,2.9c-0.8,0.8-1.8,1.2-2.9,1.2H1512
		c-1.1,0-2.1-0.4-2.9-1.2c-0.8-0.8-1.2-1.8-1.2-2.9V504c0-1.1,0.4-2.1,1.2-2.9c0.8-0.8,1.8-1.2,2.9-1.2h4.1v-8.2h-21.8v8.2h4.1
		c1.1,0,2.1,0.4,2.9,1.2c0.8,0.8,1.2,1.8,1.2,2.9v13.6c0,1.1-0.4,2.1-1.2,2.9c-0.8,0.8-1.8,1.2-2.9,1.2h-13.6
		c-1.1,0-2.1-0.4-2.9-1.2s-1.2-1.8-1.2-2.9V504c0-1.1,0.4-2.1,1.2-2.9c0.8-0.8,1.8-1.2,2.9-1.2h4.1v-8.2c0-1.5,0.5-2.8,1.6-3.8
		c1.1-1.1,2.4-1.6,3.8-1.6h21.8v-8.2h-4.1c-1.1,0-2.1-0.4-2.9-1.2c-0.8-0.8-1.2-1.8-1.2-2.9v-13.6c0-1.1,0.4-2.1,1.2-2.9
		c0.8-0.8,1.8-1.2,2.9-1.2h13.6c1.1,0,2.1,0.4,2.9,1.2c0.8,0.8,1.2,1.8,1.2,2.9V474c0,1.1-0.4,2.1-1.2,2.9c-0.8,0.8-1.8,1.2-2.9,1.2
		h-4.1v8.2h21.8c1.5,0,2.8,0.5,3.8,1.6c1.1,1.1,1.6,2.4,1.6,3.8v8.2h4.1c1.1,0,2.1,0.4,2.9,1.2S1557.1,502.9,1557.1,504"/>
</g>
<g id="text8924">
	<path id="path9565" inkscape:connector-curvature="0" fill="#E5287A" d="M1393.3,253.2h15.5v-5.8c0-2.1-0.8-4-2.3-5.5
		c-1.5-1.5-3.3-2.3-5.5-2.3c-2.1,0-4,0.8-5.5,2.3c-1.5,1.5-2.3,3.3-2.3,5.5V253.2 M1418.5,256.1v17.4c0,0.8-0.3,1.5-0.8,2.1
		s-1.3,0.8-2.1,0.8h-29.1c-0.8,0-1.5-0.3-2.1-0.8c-0.6-0.6-0.8-1.3-0.8-2.1v-17.4c0-0.8,0.3-1.5,0.8-2.1c0.6-0.6,1.3-0.8,2.1-0.8h1
		v-5.8c0-3.7,1.3-6.9,4-9.6c2.7-2.7,5.9-4,9.6-4c3.7,0,6.9,1.3,9.6,4c2.7,2.7,4,5.9,4,9.6v5.8h1c0.8,0,1.5,0.3,2.1,0.8
		C1418.2,254.6,1418.5,255.3,1418.5,256.1"/>
</g>
<path id="path8936" sodipodi:nodetypes="cc" inkscape:connector-curvature="0" fill="none" stroke="#EDEDED" stroke-width="7" stroke-linecap="round" d="
	M1502.6,735.1l11-192"/>
<g id="text8957">
	<path id="path9569" inkscape:connector-curvature="0" fill="#E5287A" d="M1383.6,416.4h15.5v-5.8c0-2.1-0.8-4-2.3-5.5
		c-1.5-1.5-3.3-2.3-5.5-2.3c-2.1,0-4,0.8-5.5,2.3c-1.5,1.5-2.3,3.3-2.3,5.5V416.4 M1408.8,419.3v17.4c0,0.8-0.3,1.5-0.8,2.1
		c-0.6,0.6-1.3,0.8-2.1,0.8h-29.1c-0.8,0-1.5-0.3-2.1-0.8c-0.6-0.6-0.8-1.3-0.8-2.1v-17.4c0-0.8,0.3-1.5,0.8-2.1
		c0.6-0.6,1.3-0.8,2.1-0.8h1v-5.8c0-3.7,1.3-6.9,4-9.6c2.7-2.7,5.9-4,9.6-4c3.7,0,6.9,1.3,9.6,4c2.7,2.7,4,5.9,4,9.6v5.8h1
		c0.8,0,1.5,0.3,2.1,0.8C1408.5,417.8,1408.8,418.5,1408.8,419.3"/>
</g>
<g id="text8965">
	<path id="path9573" inkscape:connector-curvature="0" fill="#E5287A" d="M1517.8,344.1h15.5v-5.8c0-2.1-0.8-4-2.3-5.5
		c-1.5-1.5-3.3-2.3-5.5-2.3c-2.1,0-4,0.8-5.5,2.3c-1.5,1.5-2.3,3.3-2.3,5.5V344.1 M1543,347v17.4c0,0.8-0.3,1.5-0.8,2.1
		s-1.3,0.8-2.1,0.8H1511c-0.8,0-1.5-0.3-2.1-0.8c-0.6-0.6-0.8-1.3-0.8-2.1V347c0-0.8,0.3-1.5,0.8-2.1c0.6-0.6,1.3-0.8,2.1-0.8h1
		v-5.8c0-3.7,1.3-6.9,4-9.6c2.7-2.7,5.9-4,9.6-4c3.7,0,6.9,1.3,9.6,4c2.7,2.7,4,5.9,4,9.6v5.8h1c0.8,0,1.5,0.3,2.1,0.8
		C1542.7,345.5,1543,346.2,1543,347"/>
</g>
<g id="text8973">
	<path id="path9577" inkscape:connector-curvature="0" fill="#E5287A" d="M1113.7,506.8h15.5V501c0-2.1-0.8-4-2.3-5.5
		c-1.5-1.5-3.3-2.3-5.5-2.3c-2.1,0-4,0.8-5.5,2.3c-1.5,1.5-2.3,3.3-2.3,5.5V506.8 M1138.9,509.7v17.4c0,0.8-0.3,1.5-0.8,2.1
		s-1.3,0.8-2.1,0.8h-29.1c-0.8,0-1.5-0.3-2.1-0.8c-0.6-0.6-0.8-1.3-0.8-2.1v-17.4c0-0.8,0.3-1.5,0.8-2.1c0.6-0.6,1.3-0.8,2.1-0.8h1
		V501c0-3.7,1.3-6.9,4-9.6c2.7-2.7,5.9-4,9.6-4c3.7,0,6.9,1.3,9.6,4c2.7,2.7,4,5.9,4,9.6v5.8h1c0.8,0,1.5,0.3,2.1,0.8
		C1138.6,508.2,1138.9,508.9,1138.9,509.7"/>
</g>
<g id="text8981">
	<path id="path9581" inkscape:connector-curvature="0" fill="#E5287A" d="M1502,618.6h15.5v-5.8c0-2.1-0.8-4-2.3-5.5
		s-3.3-2.3-5.5-2.3c-2.1,0-4,0.8-5.5,2.3c-1.5,1.5-2.3,3.3-2.3,5.5V618.6 M1527.2,621.5v17.4c0,0.8-0.3,1.5-0.8,2.1
		c-0.6,0.6-1.3,0.8-2.1,0.8h-29.1c-0.8,0-1.5-0.3-2.1-0.8c-0.6-0.6-0.8-1.3-0.8-2.1v-17.4c0-0.8,0.3-1.5,0.8-2.1
		c0.6-0.6,1.3-0.8,2.1-0.8h1v-5.8c0-3.7,1.3-6.9,4-9.6c2.7-2.7,5.9-4,9.6-4s6.9,1.3,9.6,4c2.7,2.7,4,5.9,4,9.6v5.8h1
		c0.8,0,1.5,0.3,2.1,0.8C1526.9,620,1527.2,620.7,1527.2,621.5"/>
</g>
<g id="text8989">
	<path id="path9585" inkscape:connector-curvature="0" fill="#E5287A" d="M1254.8,160.9h15.5v-5.8c0-2.1-0.8-4-2.3-5.5
		c-1.5-1.5-3.3-2.3-5.5-2.3c-2.1,0-4,0.8-5.5,2.3c-1.5,1.5-2.3,3.3-2.3,5.5V160.9 M1280,163.8v17.4c0,0.8-0.3,1.5-0.8,2.1
		c-0.6,0.6-1.3,0.8-2.1,0.8H1248c-0.8,0-1.5-0.3-2.1-0.8c-0.6-0.6-0.8-1.3-0.8-2.1v-17.4c0-0.8,0.3-1.5,0.8-2.1
		c0.6-0.6,1.3-0.8,2.1-0.8h1v-5.8c0-3.7,1.3-6.9,4-9.6c2.7-2.7,5.9-4,9.6-4c3.7,0,6.9,1.3,9.6,4c2.7,2.7,4,5.9,4,9.6v5.8h1
		c0.8,0,1.5,0.3,2.1,0.8C1279.7,162.4,1280,163,1280,163.8"/>
</g>
<g id="text8997">
	<path id="path9589" inkscape:connector-curvature="0" fill="#E5287A" d="M1422,120h15.5v-5.8c0-2.1-0.8-4-2.3-5.5
		c-1.5-1.5-3.3-2.3-5.5-2.3c-2.1,0-4,0.8-5.5,2.3c-1.5,1.5-2.3,3.3-2.3,5.5V120 M1447.2,122.9v17.4c0,0.8-0.3,1.5-0.8,2.1
		s-1.3,0.8-2.1,0.8h-29.1c-0.8,0-1.5-0.3-2.1-0.8c-0.6-0.6-0.8-1.3-0.8-2.1v-17.4c0-0.8,0.3-1.5,0.8-2.1c0.6-0.6,1.3-0.8,2.1-0.8h1
		v-5.8c0-3.7,1.3-6.9,4-9.6c2.7-2.7,5.9-4,9.6-4c3.7,0,6.9,1.3,9.6,4c2.7,2.7,4,5.9,4,9.6v5.8h1c0.8,0,1.5,0.3,2.1,0.8
		C1446.9,121.4,1447.2,122.1,1447.2,122.9"/>
</g>
<g id="text9005">
	<path id="path9593" inkscape:connector-curvature="0" fill="#E5287A" d="M1709.6,236h15.5v-5.8c0-2.1-0.8-4-2.3-5.5
		c-1.5-1.5-3.3-2.3-5.5-2.3c-2.1,0-4,0.8-5.5,2.3c-1.5,1.5-2.3,3.3-2.3,5.5V236 M1734.8,238.9v17.4c0,0.8-0.3,1.5-0.8,2.1
		s-1.3,0.8-2.1,0.8h-29.1c-0.8,0-1.5-0.3-2.1-0.8c-0.6-0.6-0.8-1.3-0.8-2.1v-17.4c0-0.8,0.3-1.5,0.8-2.1c0.6-0.6,1.3-0.8,2.1-0.8h1
		v-5.8c0-3.7,1.3-6.9,4-9.6c2.7-2.7,5.9-4,9.6-4c3.7,0,6.9,1.3,9.6,4c2.7,2.7,4,5.9,4,9.6v5.8h1c0.8,0,1.5,0.3,2.1,0.8
		C1734.5,237.5,1734.8,238.1,1734.8,238.9"/>
</g>
<g id="text9009" transform="scale(-1,1)">
	<path id="path9596" inkscape:connector-curvature="0" fill="none" stroke="#EDEDED" stroke-width="7" d="M-530.5,308
		c0,21.8-7.7,40.4-23.2,55.9c-15.4,15.4-33.9,23-55.7,23h-223.7c-25.4,0-47.1-9-65.2-26.9c-18-18.1-26.9-39.8-26.9-65.2
		c0-18.1,4.9-34.6,14.6-49.6c9.7-15.1,22.6-26.3,38.5-33.7c-0.3-3.8-0.4-6.8-0.4-8.8c0-29.1,10.3-53.9,30.8-74.4
		c20.6-20.6,45.4-30.8,74.4-30.8c21.7,0,41.3,6,58.8,18.1c17.7,12.1,30.6,27.8,38.7,47.3c9.6-8.5,21-12.8,34.1-12.8
		c14.5,0,26.9,5.1,37.2,15.4c10.3,10.3,15.4,22.7,15.4,37.2c0,10.3-2.8,19.7-8.4,28.4c17.7,4.1,32.3,13.4,43.8,27.8
		C-536.3,273.1-530.5,289.5-530.5,308"/>
</g>
<g id="text9017">
</g>
<g id="text9325">
	<path id="path9601" inkscape:connector-curvature="0" fill="#E5287A" d="M1062,304.4h15.5v-5.8c0-2.1-0.8-4-2.3-5.5
		c-1.5-1.5-3.3-2.3-5.5-2.3c-2.1,0-4,0.8-5.5,2.3c-1.5,1.5-2.3,3.3-2.3,5.5V304.4 M1087.1,307.3v17.4c0,0.8-0.3,1.5-0.8,2.1
		s-1.3,0.8-2.1,0.8h-29.1c-0.8,0-1.5-0.3-2.1-0.8c-0.6-0.6-0.8-1.3-0.8-2.1v-17.4c0-0.8,0.3-1.5,0.8-2.1c0.6-0.6,1.3-0.8,2.1-0.8h1
		v-5.8c0-3.7,1.3-6.9,4-9.6c2.7-2.7,5.9-4,9.6-4c3.7,0,6.9,1.3,9.6,4c2.7,2.7,4,5.9,4,9.6v5.8h1c0.8,0,1.5,0.3,2.1,0.8
		C1086.9,305.9,1087.1,306.5,1087.1,307.3"/>
</g>
<g id="g9339" transform="matrix(-0.15602883,0,0,0.15602883,-167.97974,135.64247)">
	
		<path id="path9334" sodipodi:nodetypes="ccccccccccscccccccccsccssccccsccccccccccccsccc" inkscape:connector-curvature="0" fill="#FDBC41" d="
		M-6354.8,764.8c1.9,1.9,2.8,4.3,2.8,7.3c0,2.9-0.9,5.4-2.8,7.3l-101,101c-1.9,1.9-4.3,2.8-7.3,2.8c-2.7,0-5.2-0.9-7.3-2.8
		c-1.9-2.1-2.8-4.5-2.8-7.3v-60.6h-80.8c-10.1,0-19.2,1.6-27.5,4.7c-8.2,3.2-15.5,7.9-21.8,14.2c-6.3,6.3-11.7,12.8-16.1,19.6
		c-4.4,6.5-9.2,14.6-14.2,24.3c-6.7,13-14.9,31-24.6,54c-6.1,13.9-11.4,25.6-15.8,35c-4.2,9.5-9.9,20.5-17,33.1
		c-6.9,12.6-13.7,23.1-20.2,31.6c-6.3,8.4-14.1,17.1-23.3,26.2c-9,9-18.5,16.3-28.4,21.8c-9.7,5.3-20.8,9.7-33.4,13.3
		c-12.6,3.4-26.1,5-40.4,5h-70.7c-2.9,0-5.4-0.9-7.3-2.8s-2.8-4.3-2.8-7.3v-60.6c0-2.9,0.9-5.4,2.8-7.3c1.9-1.9,4.3-2.8,7.3-2.8
		h70.7c10.1,0,19.2-1.6,27.5-4.7c8.2-3.2,15.5-7.9,21.8-14.2c6.3-6.3,11.7-12.7,16.1-19.2c4.4-6.7,9.1-14.9,14.2-24.6
		c6.7-13,14.9-31,24.6-54c6.1-13.9,11.3-25.6,15.5-35c4.4-9.5,10.1-20.5,17-33.1c7.2-12.6,13.9-23.1,20.2-31.6
		c6.5-8.4,14.3-17.1,23.3-26.2c9.3-9,18.7-16.2,28.4-21.5c9.9-5.5,21.1-9.9,33.8-13.3c12.6-3.6,26.1-5.4,40.4-5.4h80.8v-60.6
		c0-2.9,0.9-5.4,2.8-7.3c1.9-1.9,4.3-2.8,7.3-2.8c2.5,0,5,1.1,7.6,3.2L-6354.8,764.8"/>
	
		<path id="path9337" sodipodi:nodetypes="ccccccccccscccccccccsccssccccsccccccccccccsccc" inkscape:connector-curvature="0" fill="#FDBC41" d="
		M-6354.8,1345.4c1.9-1.9,2.8-4.3,2.8-7.3c0-2.9-0.9-5.4-2.8-7.3l-101-101c-1.9-1.9-4.3-2.8-7.3-2.8c-2.7,0-5.2,0.9-7.3,2.8
		c-1.9,2.1-2.8,4.5-2.8,7.3v60.6h-80.8c-10.1,0-19.2-1.6-27.5-4.7c-8.2-3.2-15.5-7.9-21.8-14.2c-6.3-6.3-11.7-12.8-16.1-19.6
		c-4.4-6.5-9.2-14.6-14.2-24.3c-6.7-13-14.9-31-24.6-54c-6.1-13.9-11.4-25.6-15.8-35c-4.2-9.5-9.9-20.5-17-33.1
		c-6.9-12.6-13.7-23.1-20.2-31.6c-6.3-8.4-14.1-17.1-23.3-26.2c-9-9-18.5-16.3-28.4-21.8c-9.7-5.3-20.8-9.7-33.4-13.3
		c-12.6-3.4-26.1-5-40.4-5h-70.7c-2.9,0-5.4,0.9-7.3,2.8c-1.9,1.9-2.8,4.3-2.8,7.3v60.6c0,2.9,0.9,5.4,2.8,7.3
		c1.9,1.9,4.3,2.8,7.3,2.8h70.7c10.1,0,19.2,1.6,27.5,4.7c8.2,3.2,15.5,7.9,21.8,14.2c6.3,6.3,11.7,12.7,16.1,19.2
		c4.4,6.7,9.1,14.9,14.2,24.6c6.7,13,14.9,31,24.6,54c6.1,13.9,11.3,25.6,15.5,35c4.4,9.5,10.1,20.5,17,33.1
		c7.2,12.6,13.9,23.1,20.2,31.6c6.5,8.4,14.3,17.1,23.3,26.2c9.3,9,18.7,16.2,28.4,21.5c9.9,5.5,21.1,9.9,33.8,13.3
		c12.6,3.6,26.1,5.4,40.4,5.4h80.8v60.6c0,2.9,0.9,5.4,2.8,7.3c1.9,1.9,4.3,2.8,7.3,2.8c2.5,0,5-1.1,7.6-3.2L-6354.8,1345.4"/>
</g>
<g>
	<g>
		<g id="Wellen">
			<path fill="#FABA42" d="M1303.4,37.6l-2.5-1.2c2.4-4.8,3.6-10,3.6-15.4c0-9.8-3.9-18.9-11.1-25.6l1.9-2c7.6,7.1,12,17.2,12,27.6
				C1307.2,26.8,1305.9,32.4,1303.4,37.6z M1235.5,37.6c-2.5-5.2-3.8-10.8-3.8-16.6c0-10.4,4.4-20.4,12-27.6l1.9,2
				c-7.2,6.7-11.1,15.8-11.1,25.6c0,5.4,1.2,10.6,3.6,15.4L1235.5,37.6z"/>
			<path fill="#FABA42" d="M1294.5,33.5l-2.4-1.2c1.8-3.5,2.7-7.3,2.7-11.3c0-7.1-3-13.9-8.3-18.7l1.8-2c5.8,5.3,9.1,12.8,9.1,20.7
				C1297.4,25.3,1296.4,29.6,1294.5,33.5z M1244.2,33c-1.8-3.8-2.7-7.8-2.7-12c0-7.6,3-14.7,8.5-20l1.9,2
				c-4.9,4.8-7.6,11.2-7.6,18.1c0,3.8,0.8,7.4,2.4,10.8L1244.2,33z"/>
			<g>
				<path fill="#FABA42" d="M1252.5,29.2c-1.3-2.6-1.9-5.4-1.9-8.3c0-5.2,2.1-10.1,5.9-13.7l1.9,2c-3.2,3.1-5,7.2-5,11.7
					c0,2.4,0.6,4.8,1.6,7.1L1252.5,29.2z"/>
				<path fill="#FABA42" d="M1286.4,29.2L1284,28c1.1-2.2,1.6-4.6,1.6-7.1c0-4.5-1.8-8.6-5-11.7l1.9-2c3.8,3.6,5.9,8.5,5.9,13.7
					C1288.4,23.8,1287.7,26.6,1286.4,29.2z"/>
			</g>
		</g>
		<path id="Anker" fill="#FABA42" d="M1302.7,53.5L1290,54l-5.5,5.8l7.9-0.3c-5.2,4.9-11.6,8.1-18.7,9V38.5l8.6-0.5v-6.2l-8.6-0.5
			v-2.7c2.6-1.5,4.4-4.3,4.4-7.5c0-4.8-3.9-8.7-8.7-8.7s-8.7,3.9-8.7,8.7c0,3.2,1.8,6,4.4,7.5v2.7l-8.6,0.5v6.2l8.6,0.5v30.1
			c-7.1-0.9-13.5-4.2-18.7-9l7.9,0.3l-5.5-5.8l-12.7-0.4l-0.4,12.7l5.5,5.8l0.2-7.9c6.3,6.2,14.2,10.3,22.9,11.5
			c1.2,1.7,3,2.8,5.1,2.8c2.1,0,3.9-1.1,5.1-2.8c8.7-1.2,16.7-5.3,22.9-11.5l0.2,7.9l5.5-5.8L1302.7,53.5z M1269.5,17.4
			c2,0,3.6,1.6,3.6,3.6c0,2-1.6,3.6-3.6,3.6c-2,0-3.6-1.6-3.6-3.6C1265.9,19,1267.5,17.4,1269.5,17.4z"/>
	</g>
	
		<path id="path8850_1_" inkscape:connector-curvature="0" fill="none" stroke="#E5287A" stroke-width="7" stroke-linecap="square" stroke-linejoin="round" d="
		M1112.4,36c0,86.7,70.3,157,157,157s157-70.3,157-157s-70.3-157-157-157S1112.4-50.8,1112.4,36L1112.4,36z"/>
</g>
<g>
	<g>
		<g id="Wellen_1_">
			<path fill="#FABA42" d="M1945.1,286.7l-2.5-1.2c2.4-4.8,3.6-10,3.6-15.4c0-9.8-3.9-18.9-11.1-25.6l1.9-2c7.6,7.1,12,17.2,12,27.6
				C1949,275.9,1947.7,281.5,1945.1,286.7z M1877.3,286.7c-2.5-5.2-3.8-10.8-3.8-16.6c0-10.4,4.4-20.4,12-27.6l1.9,2
				c-7.2,6.7-11.1,15.8-11.1,25.6c0,5.4,1.2,10.6,3.6,15.4L1877.3,286.7z"/>
			<path fill="#FABA42" d="M1936.2,282.6l-2.4-1.2c1.8-3.5,2.7-7.3,2.7-11.3c0-7.1-3-13.9-8.3-18.7l1.8-2c5.8,5.3,9.1,12.8,9.1,20.7
				C1939.1,274.5,1938.2,278.7,1936.2,282.6z M1885.9,282.1c-1.8-3.8-2.7-7.8-2.7-12c0-7.6,3-14.7,8.5-20l1.9,2
				c-4.9,4.8-7.6,11.2-7.6,18.1c0,3.8,0.8,7.4,2.4,10.8L1885.9,282.1z"/>
			<g>
				<path fill="#FABA42" d="M1894.2,278.3c-1.3-2.6-1.9-5.4-1.9-8.3c0-5.2,2.1-10.1,5.9-13.7l1.9,2c-3.2,3.1-5,7.2-5,11.7
					c0,2.4,0.6,4.8,1.6,7.1L1894.2,278.3z"/>
				<path fill="#FABA42" d="M1928.2,278.3l-2.5-1.2c1.1-2.2,1.6-4.6,1.6-7.1c0-4.5-1.8-8.6-5-11.7l1.9-2c3.8,3.6,5.9,8.5,5.9,13.7
					C1930.1,272.9,1929.4,275.7,1928.2,278.3z"/>
			</g>
		</g>
		<path id="Anker_1_" fill="#FABA42" d="M1944.5,302.7l-12.7,0.4l-5.5,5.8l7.9-0.3c-5.2,4.9-11.6,8.1-18.7,9v-30.1l8.6-0.5v-6.2
			l-8.6-0.5v-2.7c2.6-1.5,4.4-4.3,4.4-7.5c0-4.8-3.9-8.7-8.7-8.7c-4.8,0-8.7,3.9-8.7,8.7c0,3.2,1.8,6,4.4,7.5v2.7l-8.6,0.5v6.2
			l8.6,0.5v30.1c-7.1-0.9-13.5-4.2-18.7-9l7.9,0.3l-5.5-5.8l-12.7-0.4l-0.4,12.7l5.5,5.8l0.2-7.9c6.3,6.2,14.2,10.3,22.9,11.5
			c1.2,1.7,3,2.8,5.1,2.8c2.1,0,3.9-1.1,5.1-2.8c8.7-1.2,16.7-5.3,22.9-11.5l0.2,7.9l5.5-5.8L1944.5,302.7z M1911.2,266.5
			c2,0,3.6,1.6,3.6,3.6c0,2-1.6,3.6-3.6,3.6c-2,0-3.6-1.6-3.6-3.6C1907.6,268.1,1909.2,266.5,1911.2,266.5z"/>
	</g>
	
		<path id="path8850_2_" inkscape:connector-curvature="0" fill="none" stroke="#E5287A" stroke-width="7" stroke-linecap="square" stroke-linejoin="round" d="
		M1754.1,285.1c0,86.7,70.3,157,157,157s157-70.3,157-157s-70.3-157-157-157S1754.1,198.3,1754.1,285.1L1754.1,285.1z"/>
</g>
<g>
	<g>
		<g id="Wellen_2_">
			<path fill="#FABA42" d="M1536.6,804.7l-2.5-1.2c2.4-4.8,3.6-10,3.6-15.4c0-9.8-3.9-18.9-11.1-25.6l1.9-2c7.6,7.1,12,17.2,12,27.6
				C1540.4,794,1539.1,799.5,1536.6,804.7z M1468.7,804.7c-2.5-5.2-3.8-10.8-3.8-16.6c0-10.4,4.4-20.4,12-27.6l1.9,2
				c-7.2,6.7-11.1,15.8-11.1,25.6c0,5.4,1.2,10.6,3.6,15.4L1468.7,804.7z"/>
			<path fill="#FABA42" d="M1527.6,800.7l-2.4-1.2c1.8-3.5,2.7-7.3,2.7-11.3c0-7.1-3-13.9-8.3-18.7l1.8-2c5.8,5.3,9.1,12.8,9.1,20.7
				C1530.6,792.5,1529.6,796.7,1527.6,800.7z M1477.4,800.2c-1.8-3.8-2.7-7.8-2.7-12c0-7.6,3-14.7,8.5-20l1.9,2
				c-4.9,4.8-7.6,11.2-7.6,18.1c0,3.8,0.8,7.4,2.4,10.8L1477.4,800.2z"/>
			<g>
				<path fill="#FABA42" d="M1485.6,796.4c-1.3-2.6-1.9-5.4-1.9-8.3c0-5.2,2.1-10.1,5.9-13.7l1.9,2c-3.2,3.1-5,7.2-5,11.7
					c0,2.4,0.6,4.8,1.6,7.1L1485.6,796.4z"/>
				<path fill="#FABA42" d="M1519.6,796.4l-2.5-1.2c1.1-2.2,1.6-4.6,1.6-7.1c0-4.5-1.8-8.6-5-11.7l1.9-2c3.8,3.6,5.9,8.5,5.9,13.7
					C1521.5,791,1520.9,793.8,1519.6,796.4z"/>
			</g>
		</g>
		<path id="Anker_2_" fill="#FABA42" d="M1535.9,820.7l-12.7,0.4l-5.5,5.8l7.9-0.3c-5.2,4.9-11.6,8.1-18.7,9v-30.1l8.6-0.5v-6.2
			l-8.6-0.5v-2.7c2.6-1.5,4.4-4.3,4.4-7.5c0-4.8-3.9-8.7-8.7-8.7s-8.7,3.9-8.7,8.7c0,3.2,1.8,6,4.4,7.5v2.7l-8.6,0.5v6.2l8.6,0.5
			v30.1c-7.1-0.9-13.5-4.2-18.7-9l7.9,0.3l-5.5-5.8l-12.7-0.4l-0.4,12.7l5.5,5.8l0.2-7.9c6.3,6.2,14.2,10.3,22.9,11.5
			c1.2,1.7,3,2.8,5.1,2.8c2.1,0,3.9-1.1,5.1-2.8c8.7-1.2,16.7-5.3,22.9-11.5l0.2,7.9l5.5-5.8L1535.9,820.7z M1502.6,784.6
			c2,0,3.6,1.6,3.6,3.6c0,2-1.6,3.6-3.6,3.6c-2,0-3.6-1.6-3.6-3.6C1499,786.2,1500.7,784.6,1502.6,784.6z"/>
	</g>
	
		<path id="path8850_3_" inkscape:connector-curvature="0" fill="none" stroke="#E5287A" stroke-width="7" stroke-linecap="square" stroke-linejoin="round" d="
		M1345.6,803.1c0,86.7,70.3,157,157,157c86.7,0,157-70.3,157-157s-70.3-157-157-157C1415.9,646.1,1345.6,716.4,1345.6,803.1
		L1345.6,803.1z"/>
</g>
<g>
	<g>
		<g id="Wellen_3_">
			<path fill="#FABA42" d="M1292.2,753l-2.5-1.2c2.4-4.8,3.6-10,3.6-15.4c0-9.8-3.9-18.9-11.1-25.6l1.9-2c7.6,7.1,12,17.2,12,27.6
				C1296.1,742.3,1294.8,747.8,1292.2,753z M1224.4,753c-2.5-5.2-3.8-10.8-3.8-16.6c0-10.4,4.4-20.4,12-27.6l1.9,2
				c-7.2,6.7-11.1,15.8-11.1,25.6c0,5.4,1.2,10.6,3.6,15.4L1224.4,753z"/>
			<path fill="#FABA42" d="M1283.3,749l-2.4-1.2c1.8-3.5,2.7-7.3,2.7-11.3c0-7.1-3-13.9-8.3-18.7l1.8-2c5.8,5.3,9.1,12.8,9.1,20.7
				C1286.3,740.8,1285.3,745,1283.3,749z M1233.1,748.5c-1.8-3.8-2.7-7.8-2.7-12c0-7.6,3-14.7,8.5-20l1.9,2
				c-4.9,4.8-7.6,11.2-7.6,18.1c0,3.8,0.8,7.4,2.4,10.8L1233.1,748.5z"/>
			<g>
				<path fill="#FABA42" d="M1241.3,744.7c-1.3-2.6-1.9-5.4-1.9-8.3c0-5.2,2.1-10.1,5.9-13.7l1.9,2c-3.2,3.1-5,7.2-5,11.7
					c0,2.4,0.6,4.8,1.6,7.1L1241.3,744.7z"/>
				<path fill="#FABA42" d="M1275.3,744.7l-2.5-1.2c1.1-2.2,1.6-4.6,1.6-7.1c0-4.5-1.8-8.6-5-11.7l1.9-2c3.8,3.6,5.9,8.5,5.9,13.7
					C1277.2,739.3,1276.6,742.1,1275.3,744.7z"/>
			</g>
		</g>
		<path id="Anker_3_" fill="#FABA42" d="M1291.6,769l-12.7,0.4l-5.5,5.8l7.9-0.3c-5.2,4.9-11.6,8.1-18.7,9v-30.1l8.6-0.5v-6.2
			l-8.6-0.5V744c2.6-1.5,4.4-4.3,4.4-7.5c0-4.8-3.9-8.7-8.7-8.7c-4.8,0-8.7,3.9-8.7,8.7c0,3.2,1.8,6,4.4,7.5v2.7l-8.6,0.5v6.2
			l8.6,0.5V784c-7.1-0.9-13.5-4.2-18.7-9l7.9,0.3l-5.5-5.8L1225,769l-0.4,12.7l5.5,5.8l0.2-7.9c6.3,6.2,14.2,10.3,22.9,11.5
			c1.2,1.7,3,2.8,5.1,2.8c2.1,0,3.9-1.1,5.1-2.8c8.7-1.2,16.7-5.3,22.9-11.5l0.2,7.9l5.5-5.8L1291.6,769z M1258.3,732.9
			c2,0,3.6,1.6,3.6,3.6c0,2-1.6,3.6-3.6,3.6c-2,0-3.6-1.6-3.6-3.6C1254.7,734.5,1256.3,732.9,1258.3,732.9z"/>
	</g>
	
		<path id="path8850_4_" inkscape:connector-curvature="0" fill="none" stroke="#E5287A" stroke-width="7" stroke-linecap="square" stroke-linejoin="round" d="
		M1101.3,751.4c0,86.7,70.3,157,157,157s157-70.3,157-157s-70.3-157-157-157S1101.3,664.7,1101.3,751.4L1101.3,751.4z"/>
</g>
<g>
	<g>
		<g id="Wellen_4_">
			<path fill="#FABA42" d="M1026.5,698.1l-2.5-1.2c2.4-4.8,3.6-10,3.6-15.4c0-9.8-3.9-18.9-11.1-25.6l1.9-2c7.6,7.1,12,17.2,12,27.6
				C1030.4,687.3,1029.1,692.9,1026.5,698.1z M958.7,698.1c-2.5-5.2-3.8-10.8-3.8-16.6c0-10.4,4.4-20.4,12-27.6l1.9,2
				c-7.2,6.7-11.1,15.8-11.1,25.6c0,5.4,1.2,10.6,3.6,15.4L958.7,698.1z"/>
			<path fill="#FABA42" d="M1017.6,694l-2.4-1.2c1.8-3.5,2.7-7.3,2.7-11.3c0-7.1-3-13.9-8.3-18.7l1.8-2c5.8,5.3,9.1,12.8,9.1,20.7
				C1020.6,685.9,1019.6,690.1,1017.6,694z M967.3,693.5c-1.8-3.8-2.7-7.8-2.7-12c0-7.6,3-14.7,8.5-20l1.9,2
				c-4.9,4.8-7.6,11.2-7.6,18.1c0,3.8,0.8,7.4,2.4,10.8L967.3,693.5z"/>
			<g>
				<path fill="#FABA42" d="M975.6,689.7c-1.3-2.6-1.9-5.4-1.9-8.3c0-5.2,2.1-10.1,5.9-13.7l1.9,2c-3.2,3.1-5,7.2-5,11.7
					c0,2.4,0.6,4.8,1.6,7.1L975.6,689.7z"/>
				<path fill="#FABA42" d="M1009.6,689.7l-2.5-1.2c1.1-2.2,1.6-4.6,1.6-7.1c0-4.5-1.8-8.6-5-11.7l1.9-2c3.8,3.6,5.9,8.5,5.9,13.7
					C1011.5,684.3,1010.9,687.1,1009.6,689.7z"/>
			</g>
		</g>
		<path id="Anker_4_" fill="#FABA42" d="M1025.9,714.1l-12.7,0.4l-5.5,5.8l7.9-0.3c-5.2,4.9-11.6,8.1-18.7,9V699l8.6-0.5v-6.2
			l-8.6-0.5V689c2.6-1.5,4.4-4.3,4.4-7.5c0-4.8-3.9-8.7-8.7-8.7c-4.8,0-8.7,3.9-8.7,8.7c0,3.2,1.8,6,4.4,7.5v2.7l-8.6,0.5v6.2
			l8.6,0.5v30.1c-7.1-0.9-13.5-4.2-18.7-9l7.9,0.3l-5.5-5.8l-12.7-0.4l-0.4,12.7l5.5,5.8l0.2-7.9c6.3,6.2,14.2,10.3,22.9,11.5
			c1.2,1.7,3,2.8,5.1,2.8c2.1,0,3.9-1.1,5.1-2.8c8.7-1.2,16.7-5.3,22.9-11.5l0.2,7.9l5.5-5.8L1025.9,714.1z M992.6,677.9
			c2,0,3.6,1.6,3.6,3.6s-1.6,3.6-3.6,3.6s-3.6-1.6-3.6-3.6S990.6,677.9,992.6,677.9z"/>
	</g>
	
		<path id="path8850_5_" inkscape:connector-curvature="0" fill="none" stroke="#E5287A" stroke-width="7" stroke-linecap="square" stroke-linejoin="round" d="
		M835.6,696.5c0,86.7,70.3,157,157,157c86.7,0,157-70.3,157-157s-70.3-157-157-157C905.9,539.4,835.6,609.7,835.6,696.5L835.6,696.5
		z"/>
</g>
<g>
	<g>
		<g id="Wellen_5_">
			<path fill="#FABA42" d="M2050.3,509.2l-2.5-1.2c2.4-4.8,3.6-10,3.6-15.4c0-9.8-3.9-18.9-11.1-25.6l1.9-2c7.6,7.1,12,17.2,12,27.6
				C2054.1,498.5,2052.8,504,2050.3,509.2z M1982.4,509.2c-2.5-5.2-3.8-10.8-3.8-16.6c0-10.4,4.4-20.4,12-27.6l1.9,2
				c-7.2,6.7-11.1,15.8-11.1,25.6c0,5.4,1.2,10.6,3.6,15.4L1982.4,509.2z"/>
			<path fill="#FABA42" d="M2041.3,505.2l-2.4-1.2c1.8-3.5,2.7-7.3,2.7-11.3c0-7.1-3-13.9-8.3-18.7l1.8-2c5.8,5.3,9.1,12.8,9.1,20.7
				C2044.3,497,2043.3,501.2,2041.3,505.2z M1991.1,504.7c-1.8-3.8-2.7-7.8-2.7-12c0-7.6,3-14.7,8.5-20l1.9,2
				c-4.9,4.8-7.6,11.2-7.6,18.1c0,3.8,0.8,7.4,2.4,10.8L1991.1,504.7z"/>
			<g>
				<path fill="#FABA42" d="M1999.3,500.9c-1.3-2.6-1.9-5.4-1.9-8.3c0-5.2,2.1-10.1,5.9-13.7l1.9,2c-3.2,3.1-5,7.2-5,11.7
					c0,2.4,0.6,4.8,1.6,7.1L1999.3,500.9z"/>
				<path fill="#FABA42" d="M2033.3,500.9l-2.5-1.2c1.1-2.2,1.6-4.6,1.6-7.1c0-4.5-1.8-8.6-5-11.7l1.9-2c3.8,3.6,5.9,8.5,5.9,13.7
					C2035.2,495.5,2034.6,498.3,2033.3,500.9z"/>
			</g>
		</g>
		<path id="Anker_5_" fill="#FABA42" d="M2049.6,525.2l-12.7,0.4l-5.5,5.8l7.9-0.3c-5.2,4.9-11.6,8.1-18.7,9v-30.1l8.6-0.5v-6.2
			l-8.6-0.5v-2.7c2.6-1.5,4.4-4.3,4.4-7.5c0-4.8-3.9-8.7-8.7-8.7s-8.7,3.9-8.7,8.7c0,3.2,1.8,6,4.4,7.5v2.7l-8.6,0.5v6.2l8.6,0.5
			v30.1c-7.1-0.9-13.5-4.2-18.7-9l7.9,0.3l-5.5-5.8l-12.7-0.4l-0.4,12.7l5.5,5.8l0.2-7.9c6.3,6.2,14.2,10.3,22.9,11.5
			c1.2,1.7,3,2.8,5.1,2.8c2.1,0,3.9-1.1,5.1-2.8c8.7-1.2,16.7-5.3,22.9-11.5l0.2,7.9l5.5-5.8L2049.6,525.2z M2016.3,489.1
			c2,0,3.6,1.6,3.6,3.6c0,2-1.6,3.6-3.6,3.6c-2,0-3.6-1.6-3.6-3.6C2012.7,490.7,2014.3,489.1,2016.3,489.1z"/>
	</g>
	
		<path id="path8850_6_" inkscape:connector-curvature="0" fill="none" stroke="#E5287A" stroke-width="7" stroke-linecap="square" stroke-linejoin="round" d="
		M1859.3,507.6c0,86.7,70.3,157,157,157c86.7,0,157-70.3,157-157s-70.3-157-157-157C1929.6,350.6,1859.3,420.9,1859.3,507.6
		L1859.3,507.6z"/>
</g>
</svg>
